<svg width="24" height="24" viewBox="0 0 24 24" fill="none" xmlns="http://www.w3.org/2000/svg">
<path d="M17.2768 3.82322L17.2036 3.75H17.1H3H2.75V4V17.6V17.6956L2.81379 17.7668L7.11379 22.5668L7.18831 22.65H7.3H21.4H21.65V22.4V8.3V8.19645L21.5768 8.12322L17.2768 3.82322ZM17.45 7.95V5.50355L19.8964 7.95H17.45ZM7.85 18.05H16.6889L19.9376 21.65H7.85V18.05ZM4.50355 4.75H16.543L16.4568 7.85H7.60355L4.50355 4.75ZM16.45 17.05H7.85V8.85H16.45V17.05ZM3.75 5.50355L6.85 8.60355V17.05H3.75V5.50355ZM20.55 20.7485L17.45 17.3041V8.85H20.55V20.7485ZM6.85 18.05V20.8441L4.35796 18.05H6.85Z" fill="white" stroke="white" stroke-width="0.5"/>
<path opacity="0.5" d="M7.39995 22.1002L3.19995 17.5002V4.2002L7.39995 8.4002V22.1002Z" fill="#F2F4F6"/>
</svg>
