<svg width="24" height="24" viewBox="0 0 24 24" fill="none" xmlns="http://www.w3.org/2000/svg">
<path opacity="0.5" d="M21.1 21.1002L16.9 16.5002V3.2002L21.1 7.4002V21.1002Z" fill="#F2F4F6"/>
<path d="M17.2768 2.82322L17.2036 2.75H17.1H3H2.75V3V16.6V16.7036L2.82322 16.7768L2.91826 16.8718L7.11359 21.5666L7.18813 21.65H7.3H21.4H21.65V21.4V7.3V7.19645L21.5768 7.12322L17.2768 2.82322ZM17.45 6.95V4.50355L19.8964 6.95H17.45ZM7.85 17.05H16.6889L19.9376 20.65H7.85V17.05ZM4.50355 3.75H16.543L16.4568 6.85H7.60355L4.50355 3.75ZM16.45 16.05H7.85V7.85H16.45V16.05ZM3.75 4.50355L6.85 7.60355V16.05H3.75V4.50355ZM20.55 19.7485L17.45 16.3041V7.85H20.55V19.7485ZM6.85 17.05V19.8441L4.35796 17.05H6.85Z" fill="white" stroke="white" stroke-width="0.5"/>
</svg>
