<svg width="32" height="31" viewBox="0 0 32 31" fill="none" xmlns="http://www.w3.org/2000/svg">
<path opacity="0.5" d="M19.6721 30.4703C14.9635 30.4703 9.10958 23.8009 8.85506 23.5468C8.66417 23.2927 4.46462 17.5761 5.03729 13.8286C5.16455 12.8758 5.60995 12.1771 6.30988 11.6689C10.064 8.93765 18.3359 2.14124 18.3995 2.07772C18.5267 1.95069 21.8355 -0.590036 24.317 0.172181C25.3351 0.489771 26.035 1.31552 26.4168 2.6494C28.0075 7.98491 27.6894 20.4979 23.6171 27.866C22.7899 29.3905 21.581 30.2797 20.1175 30.4703C19.9902 30.4703 19.863 30.4703 19.6721 30.4703Z" fill="white"/>
<path d="M19.6721 30.4703C14.9635 30.4703 9.10958 23.8009 8.85506 23.5468C8.66417 23.2927 4.46462 17.5761 5.03729 13.8286C5.16455 12.8758 5.60995 12.1771 6.30988 11.6689C10.064 8.93765 18.3359 2.14124 18.3995 2.07772C18.5267 1.95069 21.8355 -0.590036 24.317 0.172181C25.3351 0.489771 26.035 1.31552 26.4168 2.6494C28.0075 7.98491 27.6894 20.4979 23.6171 27.866C22.7899 29.3905 21.581 30.2797 20.1175 30.4703C19.9902 30.4703 19.863 30.4703 19.6721 30.4703ZM18.8449 2.52236C18.654 2.64939 10.4458 9.44583 6.69166 12.1771C6.11899 12.6217 5.80084 13.1934 5.67358 13.9556C5.16455 17.3856 9.30047 23.1022 9.3641 23.1657C9.42773 23.2292 15.6634 30.3433 20.1175 29.8351C21.3901 29.7081 22.4081 28.9458 23.1717 27.5484C27.1167 20.3074 27.4349 8.04843 25.9078 2.83995C25.5896 1.69662 25.017 0.997931 24.1898 0.743858C22.0264 0.04516 18.9722 2.45884 18.8449 2.52236Z" fill="#2D2F44"/>
</svg>
