<svg width="40" height="40" viewBox="0 0 40 40" fill="none" xmlns="http://www.w3.org/2000/svg">
<path opacity="0.5" d="M23.4956 39.0262C18.8771 39.0262 14.4434 34.4706 12.7192 31.4751C9.27078 25.5466 1.5118 11.5054 3.54391 8.38514L3.6055 8.32273C3.66708 8.19792 12.7192 -1.2877 33.7793 0.147626C34.8261 0.210031 35.6882 1.0213 35.8114 2.08219C36.4272 6.88741 37.2893 19.3061 32.2398 31.1631C30.0845 36.2179 27.3135 38.839 23.9266 39.0886C23.7419 39.0262 23.6187 39.0262 23.4956 39.0262Z" fill="white"/>
<path d="M23.4956 39.0262C18.8771 39.0262 14.4434 34.4706 12.7192 31.4751C9.27078 25.5466 1.5118 11.5054 3.54391 8.38513L3.6055 8.32273C3.66708 8.19792 12.7192 -1.28771 33.7793 0.147618C34.8261 0.210024 35.6882 1.02129 35.8114 2.08219C36.4272 6.8874 37.2893 19.3061 32.2398 31.1631C30.0845 36.2179 27.3135 38.839 23.9266 39.0886C23.7419 39.0262 23.6187 39.0262 23.4956 39.0262ZM4.03655 8.69716C2.62023 11.0686 7.85445 21.8647 13.2734 31.1007C14.7513 33.5969 19.2466 38.6518 23.9266 38.3397C27.0671 38.1525 29.6535 35.5939 31.6856 30.7887C36.6119 19.1189 35.8114 6.76259 35.1956 2.01978C35.0724 1.27092 34.4566 0.709267 33.7177 0.646861C13.3966 -0.663652 4.4676 8.19792 4.03655 8.69716Z" fill="#2D2F44"/>
</svg>
