<svg width="43" height="42" viewBox="0 0 43 42" fill="none" xmlns="http://www.w3.org/2000/svg">
<path opacity="0.5" d="M23.9513 40.9159C30.8699 40.9159 37.6033 39.2799 39.0859 35.0641C39.2712 34.8124 39.5801 34.1203 39.7036 31.9809C39.7036 30.9742 40.2596 29.9674 40.8155 28.8348C41.6804 27.1359 42.607 25.2482 42.4834 22.7313C42.4217 21.9134 42.2981 21.0954 42.1128 20.1515C41.248 16.3762 39.2094 12.7896 36.306 9.83227C32.4143 5.93109 24.8161 -0.235293 17.0944 1.7153C5.66621 4.67265 6.96346 10.7761 7.02523 11.0278C7.02523 11.0907 7.51942 20.0257 3.62767 23.7381C2.14509 25.1853 1.58913 27.2617 2.08332 29.5899C2.88638 33.6798 6.77814 37.4552 11.9671 39.217C15.1176 40.2237 19.5653 40.9159 23.9513 40.9159Z" fill="white"/>
<path d="M23.9513 40.9159C30.8699 40.9159 37.6033 39.2799 39.0859 35.0641C39.2712 34.8124 39.5801 34.1203 39.7036 31.9809C39.7036 30.9742 40.2596 29.9674 40.8155 28.8348C41.6804 27.1359 42.607 25.2482 42.4834 22.7313C42.4217 21.9134 42.2981 21.0954 42.1128 20.1515C41.248 16.3762 39.2094 12.7896 36.306 9.83227C32.4143 5.93109 24.8161 -0.235293 17.0944 1.7153C5.66621 4.67265 6.96346 10.7761 7.02523 11.0278C7.02523 11.0907 7.51942 20.0257 3.62767 23.7381C2.1451 25.1853 1.58913 27.2617 2.08332 29.5899C2.88638 33.6798 6.77814 37.4552 11.9671 39.217C15.1176 40.2237 19.5653 40.9159 23.9513 40.9159ZM41.495 20.2774C41.6804 21.1583 41.8039 21.9763 41.8657 22.7313C41.9892 25.0595 41.1244 26.8842 40.3213 28.4573C39.7036 29.6528 39.1476 30.7225 39.1476 31.918C39.0859 34.1832 38.7152 34.6237 38.7152 34.6237L38.6534 34.6866V34.7495C36.5531 41.0417 21.1714 41.5451 12.2142 38.5878C7.27232 36.9518 3.5659 33.3652 2.70106 29.4011C2.26864 27.3247 2.70106 25.437 4.06008 24.1785C8.13716 20.2774 7.64297 11.2795 7.64297 10.9019C7.5812 10.5873 6.46926 5.1131 17.2797 2.2816C24.6926 0.393926 32.1672 6.43447 35.9354 10.2098C38.6534 13.1042 40.6302 16.565 41.495 20.2774Z" fill="#2D2F44"/>
<path d="M27.1016 7.25146C25.5573 8.57283 24.26 10.3347 23.6423 12.4111C23.3334 13.4179 23.2716 14.5504 23.5187 15.6201C23.7658 16.6898 24.3218 17.6336 25.0631 18.4516C26.4839 20.0247 28.3989 21.0944 30.3138 21.8494C32.2288 22.6045 34.2056 23.1708 36.2441 23.5483C35.2558 23.2337 34.2674 22.9191 33.3408 22.5416C32.8466 22.3528 32.3524 22.227 31.92 21.9753L31.2405 21.6607L30.5609 21.3461C28.7077 20.4651 26.9163 19.4584 25.619 17.9483C24.9395 17.1932 24.4453 16.3123 24.1982 15.3684C23.9511 14.4246 23.9511 13.4179 24.1982 12.4111C24.4453 11.4043 24.8777 10.4605 25.3719 9.6425C25.7426 8.82451 26.4221 8.00653 27.1016 7.25146Z" fill="#2D2F44"/>
<path d="M7.5192 30.6593C8.01339 30.848 8.56935 30.9739 9.06354 31.0368C9.61951 31.0997 10.1137 31.1627 10.6697 31.1627C11.1639 31.1627 11.658 31.0997 12.1522 31.0997L15.1174 28.457L12.5847 31.5402C12.5229 32.6098 12.7082 33.6166 13.2024 34.4975C13.7584 35.4414 14.6232 36.0706 15.6116 36.4481C16.6 36.8257 17.7119 37.0773 18.8238 37.1403C19.9357 37.2032 21.0477 37.2661 22.1596 37.0774C21.6036 37.2661 21.0477 37.329 20.4917 37.4549C19.9357 37.5178 19.3798 37.5807 18.8238 37.5178C17.7119 37.5178 16.5382 37.392 15.4263 36.9515C14.3143 36.574 13.3259 35.8189 12.6464 34.7492C12.0905 33.8054 11.9051 32.6728 11.9669 31.6031C10.9785 31.666 9.92838 31.6031 8.94 31.4144C8.38403 31.2885 7.82807 31.0997 7.33388 30.848C6.83969 30.5964 6.40727 30.1559 6.16017 29.6525C6.53082 30.1559 7.02501 30.4705 7.5192 30.6593Z" fill="#2D2F44"/>
</svg>
