<svg width="34" height="34" viewBox="0 0 34 34" fill="none" xmlns="http://www.w3.org/2000/svg">
<path opacity="0.5" d="M10.9359 33.1477C11.3106 33.1477 11.6853 33.1477 12.1225 33.0864C21.2402 32.5956 29.7334 25.4184 29.8583 25.357C29.8583 25.357 33.8551 22.5965 31.9192 16.5235C31.4196 14.8672 31.0449 13.2722 30.7326 11.8613C29.9832 8.24201 29.3587 5.42018 26.3611 4.00926L18.8046 0.512647C18.8046 0.512647 17.4932 -0.284828 15.6197 0.267269C13.4964 0.819367 11.5604 2.72104 9.87425 5.91093C9.24975 7.13781 8.62524 8.18066 8.06319 9.22351C4.94068 14.8058 2.81738 18.4865 2.38023 28.3015C2.38023 28.3629 2.81738 33.1477 10.9359 33.1477Z" fill="white"/>
<path d="M10.9359 33.1477C11.3106 33.1477 11.6853 33.1477 12.1225 33.0864C21.2402 32.5956 29.7334 25.4184 29.8583 25.357C29.8583 25.357 33.8551 22.5965 31.9192 16.5235C31.4196 14.8672 31.0449 13.2722 30.7326 11.8613C29.9832 8.24201 29.3587 5.42018 26.3611 4.00926L18.8046 0.512647C18.8046 0.512647 17.4932 -0.284828 15.6197 0.267269C13.4964 0.819367 11.5604 2.72104 9.87425 5.91093C9.24975 7.13781 8.62524 8.18066 8.06319 9.22351C4.94068 14.8058 2.81738 18.4865 2.38023 28.3015C2.38023 28.3629 2.81738 33.1477 10.9359 33.1477ZM16.9936 0.696679C17.9303 0.696679 18.5548 1.06475 18.6173 1.06475L26.1737 4.6227C28.8591 5.84959 29.4212 8.42604 30.1706 12.0453C30.4828 13.4563 30.7951 15.0512 31.3571 16.7688C33.1057 22.4738 29.5461 24.9276 29.4836 24.9276C29.3587 25.0503 20.9904 32.1049 12.1225 32.5343C3.50433 32.9637 3.06718 28.4856 3.06718 28.3015C3.56678 18.6705 5.50274 15.2352 8.68769 9.53023C9.24975 8.48738 9.87425 7.44453 10.4988 6.21765C12.1225 3.27313 13.9335 1.37146 15.8695 0.880711C16.2442 0.758023 16.6189 0.696679 16.9936 0.696679Z" fill="#2D2F44"/>
<path d="M28.2969 19.2255C28.172 18.8574 28.1096 18.428 28.0471 18.06L27.8598 16.8944L27.5475 14.5633C27.3601 13.0297 27.1104 11.4348 26.7357 9.90118C26.6108 11.4961 26.6732 13.0911 26.923 14.6247C27.0479 15.4222 27.1728 16.2196 27.3602 16.9558C27.61 17.7532 27.8598 18.5507 28.2969 19.2255Z" fill="#2D2F44"/>
<path d="M15.9943 4.25594C16.6188 4.74669 17.3057 5.11475 17.9927 5.48282C18.6796 5.85088 19.429 6.1576 20.1784 6.40298C21.6772 6.89373 23.2385 7.20045 24.8622 7.01642C24.1128 6.83239 23.3634 6.7097 22.614 6.46433C21.8646 6.28029 21.1152 6.03492 20.4282 5.78954C18.9294 5.36013 17.4931 4.80803 15.9943 4.25594Z" fill="#2D2F44"/>
</svg>
