<svg width="36" height="36" viewBox="0 0 36 36" fill="none" xmlns="http://www.w3.org/2000/svg">
<path opacity="0.5" d="M13.572 31.24C22.2126 31.24 29.5051 27.4963 29.5664 27.4339C29.7502 27.3716 34.5302 25.6245 34.9591 21.8809C35.0204 21.5689 35.0204 21.1945 35.0817 20.8202C35.5719 16.8893 36.3073 10.9619 33.0594 8.84048L27.1151 5.03443C26.9926 4.97204 23.9285 3.10021 20.3742 5.09683C19.7001 5.47119 18.6583 5.97035 17.494 6.5319C11.8561 9.27724 2.48009 13.8944 1.43832 18.3244C1.37704 18.6364 1.31575 18.9483 1.19319 19.2603C0.519096 22.1304 -0.154991 24.8758 1.31576 27.0596C2.4801 28.869 5.05391 30.1169 9.09847 30.8032C10.5692 31.1152 12.1012 31.24 13.572 31.24Z" fill="white"/>
<path d="M13.572 31.24C22.2126 31.24 29.5051 27.4963 29.5664 27.4339C29.7502 27.3716 34.5302 25.6245 34.9591 21.8809C35.0204 21.5689 35.0204 21.1945 35.0817 20.8202C35.5719 16.8893 36.3073 10.9619 33.0594 8.84048L27.1151 5.03443C26.9926 4.97204 23.9285 3.10021 20.3742 5.09683C19.7001 5.47119 18.6583 5.97035 17.494 6.5319C11.8561 9.27724 2.4801 13.8944 1.43832 18.3244C1.37704 18.6364 1.31575 18.9483 1.19319 19.2603C0.519096 22.1304 -0.154991 24.8758 1.31576 27.0596C2.4801 28.869 5.05391 30.1169 9.09847 30.8032C10.5692 31.1152 12.1012 31.24 13.572 31.24ZM23.806 4.78486C25.5218 4.78486 26.6862 5.47119 26.7475 5.53359L32.6917 9.33963C35.6332 11.2115 34.9591 16.9517 34.4689 20.6954C34.4076 21.0697 34.3463 21.4441 34.3463 21.7561C33.9786 25.1254 29.3825 26.81 29.3213 26.81C29.1987 26.8724 19.3324 31.9887 9.09847 30.1793C5.23775 29.493 2.84779 28.3699 1.74472 26.6852C0.457817 24.6886 1.07063 22.1304 1.74472 19.3851C1.806 19.0731 1.86729 18.7612 1.98985 18.4492C2.97035 14.2688 12.5915 9.58921 17.7391 7.03105C19.026 6.40711 20.0065 5.90795 20.6806 5.53359C21.7837 4.97204 22.8867 4.78486 23.806 4.78486Z" fill="#2D2F44"/>
<path d="M24.1125 8.77928C24.3577 9.52801 24.0513 10.2767 23.561 10.7759C23.3159 11.0255 23.0708 11.2751 22.7644 11.4622C22.458 11.6494 22.1516 11.8366 21.8451 11.9614C21.5387 12.1486 21.1711 12.211 20.8646 12.3981L20.3744 12.5853L19.8841 12.7101L18.8424 13.0221L17.8006 13.2717C17.1265 13.4589 16.3911 13.5836 15.6557 13.7084C14.9204 13.8332 14.2463 13.958 13.5109 14.0204C12.7755 14.1452 12.0402 14.27 11.3661 14.3324C10.6307 14.4572 9.89531 14.5196 9.22122 14.6443C10.692 14.6443 12.1627 14.6443 13.6335 14.5196C14.3688 14.4572 15.1042 14.3948 15.8396 14.27C16.575 14.1452 17.3103 14.0828 17.9844 13.8956L19.0875 13.646L20.1293 13.3341L20.6808 13.1469L21.1711 12.8973C21.5387 12.7725 21.8451 12.5853 22.1516 12.3981C22.458 12.211 22.8256 12.0238 23.0708 11.7742C23.3772 11.587 23.6223 11.275 23.8674 10.9631C24.2964 10.3391 24.4802 9.46562 24.1125 8.77928Z" fill="#2D2F44"/>
<path d="M29.9954 24.6266C28.8923 24.377 27.728 24.2522 26.5636 24.1898C25.3993 24.1274 24.2349 24.1274 23.0706 24.2522C21.9062 24.377 20.7419 24.6266 19.6388 25.0009C18.5358 25.3753 17.494 25.9993 16.5135 26.6856L16.8199 27.1847C17.494 26.748 18.1068 26.2488 18.7196 25.6873C19.2712 25.1257 19.8227 24.5018 20.1904 23.7531C20.5581 23.0043 20.7419 22.1308 20.5581 21.3197C20.3742 20.5086 19.884 19.8222 19.3324 19.2607C19.8227 19.8846 20.2516 20.571 20.3129 21.3197C20.3742 22.0684 20.1904 22.8172 19.8227 23.5035C19.455 24.1898 18.9035 24.7514 18.3519 25.2505C17.8004 25.7497 17.1876 26.2488 16.5135 26.6232L16.8199 27.1224C17.7391 26.436 18.7196 25.9369 19.7614 25.5001C20.8032 25.1257 21.9062 24.8762 23.0706 24.689C25.338 24.4394 27.6667 24.4394 29.9954 24.6266Z" fill="#2D2F44"/>
</svg>
