<svg width="44" height="45" viewBox="0 0 44 45" fill="none" xmlns="http://www.w3.org/2000/svg">
<path opacity="0.5" d="M25.7441 44.3591C29.3531 44.3591 32.7131 43.9181 35.3265 42.9102C42.731 40.2015 42.9799 25.965 42.4821 17.7128C41.9844 9.3347 35.8243 2.34242 27.7975 1.01956C24.2508 0.45262 20.3307 0.704605 16.0995 1.83849C9.56612 3.53931 4.52604 9.01975 3.21936 15.7601C2.16156 21.1775 0.979328 28.6107 1.04155 33.2722C1.10377 35.351 2.34823 37.3038 4.83716 39.0047C9.69056 42.4063 18.2151 44.3591 25.7441 44.3591Z" fill="white"/>
<path d="M25.7441 44.3591C29.3531 44.3591 32.7131 43.9181 35.3265 42.9102C42.731 40.2015 42.9799 25.965 42.4821 17.7128C41.9844 9.3347 35.8243 2.34242 27.7975 1.01956L27.7353 1.33453L27.7975 1.01956C24.2508 0.45262 20.3307 0.704605 16.0995 1.83849C9.56612 3.53931 4.52604 9.01975 3.21936 15.7601C2.16156 21.1775 0.979328 28.6107 1.04155 33.2722C1.10378 35.351 2.34824 37.3038 4.83716 39.0047C9.69056 42.4063 18.2151 44.3591 25.7441 44.3591ZM24.1263 1.39753C25.3708 1.39753 26.553 1.46052 27.7353 1.6495C35.4509 2.90937 41.4244 9.64967 41.8599 17.7128C42.3577 25.776 42.1088 39.6976 35.1398 42.2803C27.2375 45.241 12.1795 43.2882 5.27272 38.5007C2.97047 36.9259 1.78823 35.162 1.78823 33.2722C1.72601 28.6737 2.90824 21.2405 3.96603 15.886C5.2105 9.3977 10.0639 4.10625 16.3484 2.40543C19.0863 1.77549 21.6996 1.39753 24.1263 1.39753Z" fill="#2D2F44"/>
<path d="M28.6064 6.56295C27.7975 6.122 26.9264 5.80703 26.0553 5.61805C25.6197 5.55506 25.122 5.49206 24.6864 5.55505C24.2508 5.61805 23.753 5.80702 23.3797 6.12199L23.1308 6.37396C23.0686 6.49995 23.0064 6.56294 22.9441 6.68893C22.8197 6.87791 22.7575 7.12989 22.6952 7.38186C22.5708 7.82282 22.5708 8.32677 22.5086 8.76773L22.1352 11.4764C21.6997 15.1301 21.2019 18.7207 20.4552 22.3113C20.1441 24.0751 19.7085 25.902 19.273 27.6658C18.7752 29.4296 18.2152 31.1304 17.3441 32.7053C17.1574 33.0832 16.9085 33.4612 16.5974 33.8391C16.3485 34.1541 16.0374 34.4691 15.664 34.847C15.0418 35.54 14.4196 36.2959 14.1707 37.1778C13.9218 38.0597 14.1085 39.1936 14.8551 39.8235C15.1663 40.1385 15.6018 40.3905 16.0374 40.5164C16.4729 40.6424 16.9085 40.7684 17.4063 40.6424C16.9707 40.7054 16.4729 40.5794 16.0996 40.4535C15.664 40.2645 15.2907 40.0125 14.9796 39.6975C14.3574 39.0676 14.1707 38.0597 14.4818 37.3038C14.7929 36.4849 15.3529 35.7919 15.9752 35.162C16.2863 34.847 16.6596 34.5321 16.9707 34.1541C17.2818 33.7761 17.5307 33.3982 17.7796 33.0202C18.2774 32.2013 18.6507 31.3824 18.9619 30.5005C19.273 29.6186 19.5841 28.7367 19.833 27.8548C20.3308 26.0909 20.7663 24.2641 21.0774 22.5003C21.7619 18.9097 22.2597 15.2561 22.5708 11.6024L22.8197 8.8937C22.9441 8.01179 22.8819 7.0039 23.5041 6.37396C23.753 6.05899 24.1886 5.87002 24.6242 5.80702C25.0597 5.74403 25.4953 5.74403 25.9309 5.80702C26.8642 5.87002 27.7353 6.18499 28.6064 6.56295Z" fill="#2D2F44"/>
<path d="M36.8199 26.7849C36.5711 27.2258 36.1977 27.6038 35.7622 27.8558C35.6377 27.9188 35.5133 27.9818 35.451 28.0448C35.3266 28.1077 35.2021 28.1707 35.1399 28.1707L34.7666 28.2967C34.6421 28.2967 34.5177 28.3597 34.3932 28.3597C33.3977 28.4857 32.4643 28.2337 31.531 27.9188C30.5976 27.5408 29.7265 27.0998 28.8554 26.5959C27.9843 26.0919 27.1754 25.462 26.3665 24.8951C25.9931 24.5801 25.5576 24.2651 25.0598 24.0762C24.6242 23.8872 24.0642 23.6982 23.5042 23.8872C22.9442 24.0762 22.6953 24.6431 22.5709 25.147C22.5086 25.399 22.5086 25.651 22.4464 25.903V26.6589L22.5709 25.903C22.6331 25.651 22.6953 25.462 22.7575 25.21C22.9442 24.7691 23.1931 24.3911 23.6286 24.2651C24.002 24.1392 24.4998 24.3281 24.8731 24.5171C25.2464 24.7691 25.682 25.0211 25.9931 25.336C26.802 25.966 27.6109 26.5959 28.5443 27.0999C29.4154 27.6668 30.3487 28.1077 31.3443 28.4227C32.3399 28.7377 33.3977 28.9266 34.4555 28.7377C35.5133 28.5487 36.5088 27.7928 36.8199 26.7849Z" fill="#2D2F44"/>
<path d="M12.8641 23.1337C12.9886 22.6298 12.8641 22.0628 12.6153 21.6219C12.3664 21.1179 11.9308 20.803 11.433 20.551C10.9352 20.299 10.4374 20.236 9.87743 20.236C9.62854 20.236 9.37965 20.299 9.13076 20.299C8.88186 20.362 8.63297 20.425 8.38408 20.488C8.63297 20.551 8.88186 20.551 9.13076 20.614L9.81521 20.74C10.2508 20.866 10.7486 20.929 11.1219 21.1179C11.993 21.4329 12.6153 22.1258 12.8641 23.1337Z" fill="#2D2F44"/>
</svg>
