<svg width="34" height="34" viewBox="0 0 34 34" fill="none" xmlns="http://www.w3.org/2000/svg">
<path opacity="0.5" d="M22.6334 33.1477C22.2587 33.1477 21.884 33.1477 21.4468 33.0864C12.3291 32.5956 3.83586 25.4184 3.71096 25.357C3.71096 25.357 -0.285848 22.5965 1.65011 16.5235C2.14971 14.8672 2.52441 13.2722 2.83666 11.8613C3.58606 8.24201 4.21056 5.42018 7.20817 4.00926L14.7647 0.512647C14.7647 0.512647 16.0761 -0.284828 17.9496 0.267269C20.0729 0.819367 22.0089 2.72104 23.695 5.91093C24.3195 7.13781 24.944 8.18066 25.5061 9.22351C28.6286 14.8058 30.7519 18.4865 31.189 28.3015C31.189 28.3629 30.7519 33.1477 22.6334 33.1477Z" fill="white"/>
<path d="M22.6334 33.1477C22.2587 33.1477 21.884 33.1477 21.4468 33.0864C12.3291 32.5956 3.83586 25.4184 3.71096 25.357C3.71096 25.357 -0.285848 22.5965 1.65011 16.5235C2.14971 14.8672 2.52441 13.2722 2.83666 11.8613C3.58606 8.24201 4.21056 5.42018 7.20817 4.00926L14.7647 0.512647C14.7647 0.512647 16.0761 -0.284828 17.9496 0.267269C20.0729 0.819367 22.0089 2.72104 23.695 5.91093C24.3195 7.13781 24.944 8.18066 25.5061 9.22351C28.6286 14.8058 30.7519 18.4865 31.189 28.3015C31.189 28.3629 30.7519 33.1477 22.6334 33.1477ZM16.5757 0.696679C15.6389 0.696679 15.0144 1.06475 14.952 1.06475L7.39552 4.6227C4.71017 5.84959 4.14811 8.42604 3.39871 12.0453C3.08646 13.4563 2.77421 15.0512 2.21216 16.7688C0.463551 22.4738 4.02321 24.9276 4.08566 24.9276C4.21056 25.0503 12.5789 32.1049 21.4468 32.5343C30.0649 32.9637 30.5021 28.4856 30.5021 28.3015C30.0025 18.6705 28.0665 15.2352 24.8816 9.53023C24.3195 8.48738 23.695 7.44453 23.0705 6.21765C21.4468 3.27313 19.6358 1.37146 17.6998 0.880711C17.3251 0.758023 16.9504 0.696679 16.5757 0.696679Z" fill="#2D2F44"/>
<path d="M5.27237 19.2255C5.39727 18.8574 5.45972 18.428 5.52217 18.06L5.70952 16.8944L6.02177 14.5633C6.20913 13.0297 6.45892 11.4348 6.83362 9.90118C6.95852 11.4961 6.89608 13.0911 6.64628 14.6247C6.52138 15.4222 6.39647 16.2196 6.20912 16.9558C5.95932 17.7532 5.70952 18.5507 5.27237 19.2255Z" fill="#2D2F44"/>
<path d="M17.575 4.25594C16.9505 4.74669 16.2636 5.11475 15.5766 5.48282C14.8897 5.85088 14.1403 6.1576 13.3909 6.40298C11.8921 6.89373 10.3308 7.20045 8.70709 7.01642C9.45649 6.83239 10.2059 6.7097 10.9553 6.46433C11.7047 6.28029 12.4541 6.03492 13.1411 5.78954C14.6399 5.36013 16.0762 4.80803 17.575 4.25594Z" fill="#2D2F44"/>
</svg>
