<svg width="44" height="44" viewBox="0 0 44 44" fill="none" xmlns="http://www.w3.org/2000/svg">
<path opacity="0.5" d="M22.939 43.3235C12.5394 43.3235 8.94901 40.1801 4.55392 36.3587C4.2444 36.0505 3.87299 35.8039 3.56348 35.4957C-2.06967 30.6881 0.715953 24.9559 0.715953 24.8943C0.715953 24.8943 2.01591 19.9018 2.32542 11.7041C2.63494 3.25996 10.7442 0.609596 10.868 0.54796C14.9536 -0.561493 18.6058 1.53414 18.9772 1.71905C26.7151 4.36941 35.9386 11.211 40.0241 14.9092C42.3145 17.0049 43.0574 24.8943 40.5813 31.9825C38.229 38.7008 33.6482 42.6455 27.7674 43.077C25.9103 43.2619 24.3628 43.3235 22.939 43.3235Z" fill="white"/>
<path d="M22.939 43.3235C12.5394 43.3235 8.94901 40.1801 4.55392 36.3587C4.24441 36.0505 3.87299 35.8039 3.56348 35.4957C-2.06967 30.6881 0.715953 24.9559 0.715953 24.8943C0.715953 24.8943 2.01591 19.9018 2.32542 11.7041C2.63494 3.25996 10.7442 0.609596 10.868 0.54796C14.9536 -0.561493 18.6058 1.53414 18.9772 1.71905C26.7151 4.36941 35.9386 11.211 40.0241 14.9092C42.3145 17.0049 43.0574 24.8943 40.5813 31.9825C38.229 38.7008 33.6482 42.6455 27.7674 43.077C25.9103 43.2619 24.3628 43.3235 22.939 43.3235ZM10.9918 1.16432C10.7442 1.22596 3.19206 3.81468 2.94445 11.7658C2.63494 20.025 1.27308 25.0792 1.27308 25.1408C1.14927 25.3874 -1.32683 30.5648 3.93489 35.0643C4.30631 35.3725 4.61582 35.619 4.92533 35.9272C9.87755 40.1801 13.7774 43.5701 27.6436 42.5223C35.2576 41.9676 38.6004 35.619 39.9622 31.8592C42.3145 25.1408 41.6955 17.3747 39.5908 15.4639C35.3195 11.5192 25.9722 4.8625 18.7915 2.39705H18.7296C18.6058 2.33541 14.9536 0.116506 10.9918 1.16432Z" fill="#2D2F44"/>
<path d="M28.5104 33.7692C26.9009 33.2761 25.2295 32.968 23.4963 32.968C22.6296 33.0296 21.763 33.0912 20.9582 33.3994C20.5249 33.5843 20.0916 33.8309 19.7202 34.0774C19.844 33.1529 19.9059 32.2283 19.9678 31.3038C20.0297 30.2559 19.9678 29.2081 19.9059 28.1603C19.844 26.1263 19.7821 24.154 19.7202 22.12C20.7106 21.6269 21.4535 20.8256 21.8868 19.901C22.382 18.9149 22.6296 17.8671 22.8153 16.8192C23.1248 14.7236 23.001 12.628 22.5677 10.5323C22.6296 11.5802 22.6915 12.628 22.6296 13.6758C22.6296 14.7236 22.5058 15.7714 22.3201 16.7576C22.1344 17.7438 21.8249 18.73 21.3916 19.6545C20.8963 20.5174 20.2154 21.2571 19.3488 21.6885C18.4821 22.12 17.4298 22.12 16.4393 21.9967C15.9441 21.9351 15.4489 21.8118 14.9537 21.6885C14.4585 21.5036 13.9632 21.3803 13.5299 21.1338C12.6014 20.764 11.6728 20.2709 10.7443 19.7778C9.81576 19.2847 8.94913 18.73 8.08249 18.1752C9.69196 19.4696 11.4252 20.7023 13.3442 21.5652C13.8394 21.8118 14.3347 21.9967 14.8299 22.1816C15.3251 22.3049 15.8822 22.4898 16.3774 22.5514C17.4298 22.7363 18.6059 22.6747 19.5964 22.2432H19.6583C19.5964 24.2156 19.5345 26.2496 19.4726 28.2219C19.4107 29.2698 19.3488 30.3176 19.4107 31.3654C19.4726 32.3516 19.5345 33.2761 19.6583 34.2623C19.4107 34.5089 19.1631 34.6938 18.9774 35.0019C17.925 36.4812 17.8631 38.3303 18.2964 39.9328C18.1726 39.1316 18.2345 38.2687 18.3583 37.4674C18.4821 36.6661 18.8536 35.9265 19.3488 35.3101C20.4011 34.0774 22.0725 33.6459 23.682 33.6459C25.2914 33.6459 26.9628 33.8925 28.5723 34.2623C29.377 34.4472 30.1817 34.6321 30.9865 34.9403C31.7912 35.1252 32.5959 35.4334 33.4007 35.6799C31.6674 34.8787 30.1198 34.2007 28.5104 33.7692Z" fill="#2D2F44"/>
</svg>
