<svg width="44" height="45" viewBox="0 0 44 45" fill="none" xmlns="http://www.w3.org/2000/svg">
<path opacity="0.5" d="M17.9118 44.3591C14.3028 44.3591 10.9428 43.9181 8.32943 42.9102C0.924876 40.2015 0.675983 25.965 1.17377 17.7128C1.67155 9.3347 7.83164 2.34242 15.8584 1.01956C19.4051 0.45262 23.3252 0.704605 27.5564 1.83849C34.0898 3.53931 39.1299 9.01975 40.4366 15.7601C41.4944 21.1775 42.6766 28.6107 42.6144 33.2722C42.5521 35.351 41.3077 37.3038 38.8188 39.0047C33.9654 42.4063 25.4408 44.3591 17.9118 44.3591Z" fill="white"/>
<path d="M17.9118 44.3591C14.3028 44.3591 10.9428 43.9181 8.32943 42.9102C0.924876 40.2015 0.675983 25.965 1.17377 17.7128C1.67155 9.3347 7.83164 2.34242 15.8584 1.01956L15.9206 1.33453L15.8584 1.01956C19.4051 0.45262 23.3252 0.704605 27.5564 1.83849C34.0898 3.53931 39.1299 9.01975 40.4366 15.7601C41.4944 21.1775 42.6766 28.6107 42.6144 33.2722C42.5521 35.351 41.3077 37.3038 38.8188 39.0047C33.9654 42.4063 25.4408 44.3591 17.9118 44.3591ZM19.5296 1.39753C18.2851 1.39753 17.1029 1.46052 15.9206 1.6495C8.20498 2.90937 2.23156 9.64967 1.796 17.7128C1.29821 25.776 1.54711 39.6976 8.5161 42.2803C16.4184 45.241 31.4764 43.2882 38.3832 38.5007C40.6854 36.9259 41.8677 35.162 41.8677 33.2722C41.9299 28.6737 40.7477 21.2405 39.6899 15.886C38.4454 9.3977 33.592 4.10625 27.3075 2.40543C24.5697 1.77549 21.9563 1.39753 19.5296 1.39753Z" fill="#2D2F44"/>
<path d="M15.0495 6.56295C15.8584 6.122 16.7295 5.80703 17.6006 5.61805C18.0362 5.55506 18.534 5.49206 18.9695 5.55505C19.4051 5.61805 19.9029 5.80702 20.2762 6.12199L20.5251 6.37396C20.5873 6.49995 20.6496 6.56294 20.7118 6.68893C20.8362 6.87791 20.8984 7.12989 20.9607 7.38186C21.0851 7.82282 21.0851 8.32677 21.1473 8.76773L21.5207 11.4764C21.9562 15.1301 22.454 18.7207 23.2007 22.3113C23.5118 24.0751 23.9474 25.902 24.3829 27.6658C24.8807 29.4296 25.4407 31.1304 26.3119 32.7053C26.4985 33.0832 26.7474 33.4612 27.0585 33.8391C27.3074 34.1541 27.6185 34.4691 27.9919 34.847C28.6141 35.54 29.2363 36.2959 29.4852 37.1778C29.7341 38.0597 29.5475 39.1936 28.8008 39.8235C28.4897 40.1385 28.0541 40.3905 27.6185 40.5164C27.183 40.6424 26.7474 40.7684 26.2496 40.6424C26.6852 40.7054 27.183 40.5794 27.5563 40.4535C27.9919 40.2645 28.3652 40.0125 28.6763 39.6975C29.2986 39.0676 29.4852 38.0597 29.1741 37.3038C28.863 36.4849 28.303 35.7919 27.6808 35.162C27.3696 34.847 26.9963 34.5321 26.6852 34.1541C26.3741 33.7761 26.1252 33.3982 25.8763 33.0202C25.3785 32.2013 25.0052 31.3824 24.6941 30.5005C24.3829 29.6186 24.0718 28.7367 23.8229 27.8548C23.3251 26.0909 22.8896 24.2641 22.5785 22.5003C21.894 18.9097 21.3962 15.2561 21.0851 11.6024L20.8362 8.8937C20.7118 8.01179 20.774 7.0039 20.1518 6.37396C19.9029 6.05899 19.4673 5.87002 19.0317 5.80702C18.5962 5.74403 18.1606 5.74403 17.7251 5.80702C16.7917 5.87002 15.9206 6.18499 15.0495 6.56295Z" fill="#2D2F44"/>
<path d="M6.83594 26.7849C7.08483 27.2258 7.45817 27.6038 7.89373 27.8558C8.01818 27.9188 8.14262 27.9818 8.20485 28.0448C8.32929 28.1077 8.45374 28.1707 8.51596 28.1707L8.8893 28.2967C9.01375 28.2967 9.13819 28.3597 9.26264 28.3597C10.2582 28.4857 11.1916 28.2337 12.1249 27.9188C13.0582 27.5408 13.9294 27.0998 14.8005 26.5959C15.6716 26.0919 16.4805 25.462 17.2894 24.8951C17.6628 24.5801 18.0983 24.2651 18.5961 24.0762C19.0317 23.8872 19.5917 23.6982 20.1517 23.8872C20.7117 24.0762 20.9606 24.6431 21.085 25.147C21.1473 25.399 21.1473 25.651 21.2095 25.903V26.6589L21.085 25.903C21.0228 25.651 20.9606 25.462 20.8984 25.21C20.7117 24.7691 20.4628 24.3911 20.0272 24.2651C19.6539 24.1392 19.1561 24.3281 18.7828 24.5171C18.4094 24.7691 17.9739 25.0211 17.6628 25.336C16.8539 25.966 16.045 26.5959 15.1116 27.0999C14.2405 27.6668 13.3071 28.1077 12.3116 28.4227C11.316 28.7377 10.2582 28.9266 9.20042 28.7377C8.14262 28.5487 7.14705 27.7928 6.83594 26.7849Z" fill="#2D2F44"/>
<path d="M30.7918 23.1337C30.6673 22.6298 30.7918 22.0628 31.0407 21.6219C31.2896 21.1179 31.7251 20.803 32.2229 20.551C32.7207 20.299 33.2185 20.236 33.7785 20.236C34.0274 20.236 34.2763 20.299 34.5252 20.299C34.7741 20.362 35.0229 20.425 35.2718 20.488C35.0229 20.551 34.7741 20.551 34.5252 20.614L33.8407 20.74C33.4051 20.866 32.9074 20.929 32.534 21.1179C31.6629 21.4329 31.0407 22.1258 30.7918 23.1337Z" fill="#2D2F44"/>
</svg>
