<svg width="28" height="29" viewBox="0 0 28 29" fill="none" xmlns="http://www.w3.org/2000/svg">
<path opacity="0.5" d="M13.0794 28.1774C14.8061 28.1774 16.5944 27.2884 18.3211 25.5102C25.4129 18.3977 26.9546 15.9845 25.1663 11.6661C24.4262 9.88799 23.3162 8.23685 21.8362 6.77623C19.3695 4.36304 14.3127 0.425716 8.02259 0.806747C6.17255 0.933757 4.7542 1.69582 3.82918 3.15644C0.684116 7.98282 4.13752 18.5247 4.26085 18.9692C4.38419 19.2867 7.09757 26.9073 11.9077 28.0504C12.2777 28.1139 12.7094 28.1774 13.0794 28.1774Z" fill="white"/>
<path d="M13.0794 28.1774C14.8061 28.1774 16.5944 27.2884 18.3211 25.5102C25.4129 18.3977 26.9546 15.9845 25.1663 11.6661C24.4262 9.88799 23.3162 8.23685 21.8362 6.77623C19.3695 4.36304 14.3127 0.425716 8.02259 0.806747C6.17255 0.933757 4.7542 1.69582 3.82918 3.15644C0.684116 7.98282 4.13752 18.5247 4.26085 18.9692C4.38419 19.2867 7.09757 26.9073 11.9077 28.0504C12.2777 28.1139 12.7094 28.1774 13.0794 28.1774ZM24.6113 11.9201C26.2763 15.9844 24.7346 18.2071 17.8895 25.0657C15.9161 27.0978 13.9427 27.8599 12.031 27.4154C7.59092 26.3358 4.87753 18.8422 4.87753 18.7787C4.81586 18.6516 1.42413 8.10982 4.38419 3.53746C5.18587 2.26735 6.41923 1.56883 8.08426 1.50533C14.1277 1.12429 19.0611 4.93458 21.4045 7.28427C22.8229 8.61787 23.9329 10.2055 24.6113 11.9201Z" fill="#2D2F44"/>
<path d="M17.8894 8.04237C17.8894 7.66134 17.8278 7.21679 17.6428 6.83576C17.4578 6.45473 17.2111 6.0737 16.7794 5.88318C16.3477 5.69267 15.9161 5.69269 15.4844 5.8197C15.0527 6.01021 14.7444 6.32773 14.436 6.64525C13.3877 7.97886 12.8327 9.50299 11.7843 10.7096C11.291 11.3446 10.736 11.8527 10.0576 12.2337C9.44094 12.5512 8.57759 12.7417 7.83757 13.1863C7.09756 13.5673 6.41921 14.0118 5.8642 14.7104C5.61753 15.0279 5.37086 15.4724 5.43252 15.917C5.43252 16.3615 5.74086 16.7426 6.11087 16.9331C5.74086 16.7426 5.55586 16.298 5.61753 15.917C5.61753 15.5359 5.8642 15.2184 6.11087 14.9009C6.60421 14.3294 7.34423 13.9483 8.02257 13.6308C8.76259 13.3133 9.5026 13.1228 10.3043 12.8052C11.106 12.4242 11.7226 11.8526 12.216 11.1541C12.7093 10.519 13.141 9.75699 13.5727 9.05844C13.9427 8.35988 14.3127 7.59783 14.7444 6.96278C14.9294 6.64525 15.2377 6.39123 15.5461 6.20071C15.8544 6.0737 16.2861 6.07372 16.5944 6.13722C16.9644 6.26423 17.2111 6.51826 17.3961 6.89929C17.7661 7.21681 17.8278 7.59784 17.8894 8.04237Z" fill="#2D2F44"/>
</svg>
