<svg width="45" height="45" viewBox="0 0 45 45" fill="none" xmlns="http://www.w3.org/2000/svg">
<path opacity="0.5" d="M24.6933 44.5188C28.6612 44.5188 33.063 43.2032 36.5349 38.8179C47.3226 25.3488 39.7588 13.5085 39.5108 13.0699C32.505 1.10435 20.6634 0.728489 17.2535 0.91643C14.3396 1.04172 11.6737 2.4826 9.87571 4.86319C8.07776 7.18113 7.39578 10.1255 7.95376 12.8194C9.00773 17.7685 7.76777 19.0841 7.70577 19.0841L7.64377 19.1467L7.02379 19.9611C3.24191 25.2235 2.12593 26.8523 3.05591 31.9894C3.61389 35.1217 10.8677 41.5117 19.2994 43.7044C20.9734 44.2055 22.8333 44.5188 24.6933 44.5188Z" fill="white"/>
<path d="M24.6933 44.5188C28.6612 44.5188 33.063 43.2032 36.5349 38.8179C47.3226 25.3488 39.7588 13.5085 39.5108 13.0699C32.505 1.10435 20.6634 0.728489 17.2535 0.91643C14.3396 1.04172 11.6737 2.4826 9.87571 4.86319C8.07776 7.18113 7.39578 10.1255 7.95376 12.8194C9.00773 17.7685 7.76777 19.0841 7.70577 19.0841L7.64377 19.1467L7.02379 19.9611C3.2419 25.2235 2.12593 26.8523 3.05591 31.9894C3.61389 35.1217 10.8677 41.5117 19.2994 43.7044C20.9734 44.2055 22.8333 44.5188 24.6933 44.5188ZM18.3075 1.60553C22.5853 1.60553 32.753 2.79584 39.0148 13.4458C39.0768 13.5711 46.7646 25.1608 36.1009 38.442C31.1411 44.6441 24.3213 44.4561 19.5474 43.2032C11.5497 41.1358 4.29587 34.9338 3.73788 31.9894C2.86991 27.1029 3.86189 25.662 7.58178 20.4623L8.13976 19.6479C8.38775 19.3973 9.56572 17.8311 8.51175 12.8194C8.01576 10.3135 8.69774 7.557 10.3097 5.36436C11.9836 3.17171 14.5256 1.7935 17.2535 1.6682C17.5635 1.60556 17.8735 1.60553 18.3075 1.60553Z" fill="#2D2F44"/>
<path d="M24.3833 8.43427C23.1433 10.1884 22.6473 12.5063 23.0813 14.699C23.5153 16.8916 25.0033 18.771 26.6772 20.0866C28.4132 21.4648 30.3351 22.3419 32.3811 23.0937C34.427 23.8454 36.4729 24.3466 38.5809 24.6598C37.5889 24.3466 36.5349 24.096 35.543 23.7201C35.047 23.5948 34.551 23.4069 34.055 23.219C33.559 23.031 33.063 22.8431 32.567 22.6552C32.0711 22.4672 31.5751 22.2166 31.1411 22.0287C30.6451 21.8407 30.2111 21.5901 29.7151 21.3395C29.2191 21.089 28.7852 20.8384 28.3512 20.5251C27.9172 20.2119 27.4832 19.9613 27.0492 19.5854C25.3753 18.3325 24.0733 16.641 23.5153 14.5737C23.2673 13.5713 23.2053 12.5063 23.3913 11.4413C23.5773 10.3763 23.8873 9.37397 24.3833 8.43427Z" fill="#2D2F44"/>
<path d="M33.807 34.8726C33.001 34.8726 32.2571 34.8726 31.4511 34.8726C30.6451 34.8726 29.9011 34.81 29.1571 34.7473C27.6072 34.5594 26.0572 34.3714 24.6313 33.8702C23.1433 33.4317 21.7794 32.8053 20.6014 31.8029C19.4234 30.8005 18.6795 29.4223 18.3075 27.8561C18.3695 28.6706 18.5555 29.4223 18.8654 30.1741C19.1754 30.9259 19.6714 31.5523 20.2914 32.1161C21.4694 33.3064 22.9573 33.9956 24.4453 34.4341C25.9952 34.8726 27.5452 35.1232 29.1571 35.1859C30.7071 35.2485 32.3191 35.1859 33.807 34.8726Z" fill="#2D2F44"/>
<path d="M13.9057 20.2748C14.7117 20.3374 15.5177 20.4627 16.1997 20.8386C16.5097 21.0266 16.8197 21.2772 17.0057 21.5904C17.0677 21.7783 17.1916 21.9036 17.2536 22.0916C17.3156 22.2795 17.3156 22.4675 17.3776 22.6554C17.4396 23.4072 17.2536 24.1589 16.8197 24.7854C16.3857 25.3492 15.7037 25.7878 15.0217 25.9757C14.2777 26.2263 13.5338 26.2889 12.7278 26.2889C11.9218 26.2889 11.1778 26.2263 10.4338 25.9757C9.68987 25.7878 8.94589 25.4118 8.32591 24.9733C7.70593 24.5348 7.08595 23.9083 6.96195 23.0939C6.96195 23.5324 7.08595 23.9083 7.33394 24.2842C7.51993 24.6601 7.82992 24.9733 8.13991 25.2239C8.75989 25.7877 9.50387 26.1636 10.3098 26.4142C11.9218 26.9154 13.5958 26.978 15.2077 26.5395C16.0137 26.2889 16.8197 25.8504 17.3156 25.0986C17.8116 24.3469 17.9976 23.4072 17.8736 22.5927C17.8116 22.1542 17.6876 21.7157 17.3776 21.4025C17.1296 21.0266 16.7577 20.776 16.3857 20.588C15.5177 20.2748 14.7117 20.1495 13.9057 20.2748Z" fill="#2D2F44"/>
</svg>
