<svg width="34" height="34" viewBox="0 0 34 34" fill="none" xmlns="http://www.w3.org/2000/svg">
<path opacity="0.5" d="M20.7591 32.1877C11.7673 32.1877 2.89944 26.0274 1.10107 24.1416C-0.697299 22.1929 0.41893 13.9583 0.480943 13.5183C0.791006 10.061 4.44975 7.10655 8.35656 3.90069C12.6354 0.443395 16.2942 3.08352 16.3562 3.08352C16.4182 3.14638 22.3094 8.86663 29.0068 14.084C32.2935 16.6613 33.7818 20.5586 32.9136 24.2673C31.9214 28.2275 28.5727 31.0562 23.8597 31.8734C22.7435 32.1248 21.7513 32.1877 20.7591 32.1877Z" fill="white"/>
<path d="M20.7591 32.1877C11.7673 32.1877 2.89944 26.0274 1.10107 24.1416C-0.697299 22.1929 0.41893 13.9583 0.480943 13.5183C0.791006 10.061 4.44975 7.10655 8.35656 3.90069C12.6354 0.443395 16.2942 3.08352 16.3562 3.08352C16.4182 3.14638 22.3094 8.86663 29.0068 14.084C32.2935 16.6613 33.7818 20.5586 32.9136 24.2673C31.9214 28.2275 28.5727 31.0562 23.8597 31.8734C22.7435 32.1248 21.7513 32.1877 20.7591 32.1877ZM12.9455 2.76922C11.7673 2.76922 10.279 3.14637 8.72864 4.46643C4.94586 7.54657 1.41113 10.501 1.10107 13.644C0.791006 15.9698 0.232891 22.3187 1.59717 23.7644C3.45755 25.7759 14.1858 33.0048 23.7357 31.3705C28.2006 30.6162 31.4253 27.9132 32.2935 24.2044C33.1616 20.7472 31.7354 17.0384 28.6347 14.6497C21.8753 9.43236 15.9841 3.71211 15.9221 3.64925C15.8601 3.58639 14.6819 2.76922 12.9455 2.76922Z" fill="#2D2F44"/>
<path d="M14.3719 7.92273C14.3098 8.99135 14.5579 9.99711 15.054 10.8771C15.5501 11.7572 16.2943 12.4486 17.1624 12.9515L17.4725 13.1401L17.7826 13.3287L18.4647 13.7058C18.9608 13.8944 19.3949 14.083 19.891 14.2716C20.3871 14.3973 20.8832 14.5859 21.3793 14.7116C21.8754 14.8373 22.3715 14.963 22.8676 15.0888C22.3715 15.0888 21.8134 15.0259 21.3173 14.963C20.8212 14.9002 20.2631 14.7745 19.767 14.6487C19.2709 14.523 18.7748 14.3344 18.2787 14.1459L17.5345 13.7687L17.1624 13.5801L16.8524 13.3287C15.9222 12.7629 15.116 11.9458 14.6819 10.94C14.1238 10.1228 14.0618 8.92849 14.3719 7.92273Z" fill="#2D2F44"/>
<path d="M13.7515 23.3258C13.5655 23.2001 13.3175 23.0744 13.1314 23.0115C13.4415 22.6972 13.6895 22.3829 13.9376 22.0686C14.2476 21.6914 14.3717 21.1886 14.6197 20.7485C15.0538 19.8685 15.4879 18.9885 15.922 18.1084L15.86 18.0456C15.3019 18.8627 14.7437 19.6799 14.1856 20.4971C13.9376 20.9371 13.6275 21.3143 13.3795 21.7543C13.1934 22.1315 13.0694 22.5086 12.9454 22.8858C12.2632 22.5715 11.5191 22.3829 10.8369 22.2572C9.78273 22.1315 8.79053 22.1943 7.79833 22.3829C6.80612 22.5715 5.81392 22.8858 4.88373 23.3258C5.87593 23.0744 6.86814 22.9486 7.86034 22.8858C8.85254 22.8229 9.84474 22.8229 10.7749 22.9486C11.7671 23.0744 12.6973 23.3258 13.5655 23.7658C14.4337 24.2058 15.1778 24.8344 15.86 25.5888C15.3639 24.7087 14.6817 23.8915 13.7515 23.3258Z" fill="#2D2F44"/>
</svg>
