<svg width="33" height="33" viewBox="0 0 33 33" fill="none" xmlns="http://www.w3.org/2000/svg">
<path opacity="0.5" d="M22.7741 31.0994C18.8536 31.0994 14.2593 28.0007 9.72628 25.0235C9.17496 24.6589 8.62365 24.2944 8.13359 23.9298C1.88534 19.7981 4.88695 14.5728 4.88695 14.5121C11.2577 4.0614 18.6086 0.294307 18.6699 0.294307C20.9364 -0.860126 23.0804 2.1171 23.1416 2.23861C26.4495 5.82343 29.1449 19.0083 27.9197 26.0564C27.5522 28.3045 26.7558 29.7627 25.6532 30.3703C24.7956 30.9172 23.8155 31.0994 22.7741 31.0994Z" fill="white"/>
<path d="M22.7741 31.0994C18.8537 31.0994 14.2594 28.0007 9.72631 25.0235C9.17499 24.6589 8.62368 24.2943 8.13362 23.9298C1.88537 19.7981 4.88698 14.5728 4.88698 14.5121C11.2577 4.06139 18.6086 0.2943 18.6699 0.2943C20.9364 -0.860133 23.0804 2.11709 23.1417 2.23861C26.4496 5.82342 29.1449 19.0083 27.9197 26.0564C27.5522 28.3045 26.7559 29.7627 25.6532 30.3703C24.7956 30.9171 23.8155 31.0994 22.7741 31.0994ZM19.0374 0.841136C18.9149 0.901896 11.7478 4.60823 5.49955 14.8158C5.37703 14.9981 2.74297 19.5551 8.56242 23.383C9.11373 23.7475 9.66505 24.1121 10.1551 24.4766C15.6683 28.183 21.3652 32.0108 25.5307 29.8235C26.4496 29.3374 27.1234 28.0007 27.4297 25.9349C28.5936 19.0083 26.082 6.12722 22.7741 2.60316C22.7129 2.60316 20.8139 -0.0702583 19.0374 0.841136Z" fill="#2D2F44"/>
</svg>
