<svg width="36" height="36" viewBox="0 0 36 36" fill="none" xmlns="http://www.w3.org/2000/svg">
<path opacity="0.5" d="M21.9973 31.24C13.3567 31.24 6.0642 27.4963 6.00292 27.4339C5.81907 27.3716 1.03914 25.6245 0.61017 21.8809C0.548889 21.5689 0.548888 21.1945 0.487607 20.8202C-0.00264254 16.8893 -0.738017 10.9619 2.50989 8.84048L8.45416 5.03443C8.57673 4.97204 11.6408 3.10021 15.1951 5.09683C15.8692 5.47119 16.911 5.97035 18.0753 6.5319C23.7132 9.27724 33.0892 13.8944 34.131 18.3244C34.1923 18.6364 34.2536 18.9483 34.3761 19.2603C35.0502 22.1304 35.7243 24.8758 34.2535 27.0596C33.0892 28.869 30.5154 30.1169 26.4708 30.8032C25.0001 31.1152 23.4681 31.24 21.9973 31.24Z" fill="white"/>
<path d="M21.9973 31.24C13.3567 31.24 6.0642 27.4963 6.00292 27.4339C5.81907 27.3716 1.03914 25.6245 0.61017 21.8809C0.548889 21.5689 0.548888 21.1945 0.487607 20.8202C-0.0026425 16.8893 -0.738017 10.9619 2.50989 8.84048L8.45416 5.03443C8.57673 4.97204 11.6408 3.10021 15.1951 5.09683C15.8692 5.47119 16.911 5.97035 18.0753 6.5319C23.7132 9.27724 33.0892 13.8944 34.131 18.3244C34.1923 18.6364 34.2536 18.9483 34.3761 19.2603C35.0502 22.1304 35.7243 24.8758 34.2535 27.0596C33.0892 28.869 30.5154 30.1169 26.4708 30.8032C25.0001 31.1152 23.4681 31.24 21.9973 31.24ZM11.7633 4.78486C10.0475 4.78486 8.88313 5.47119 8.82185 5.53359L2.87758 9.33963C-0.0639227 11.2115 0.61017 16.9517 1.10042 20.6954C1.1617 21.0697 1.22298 21.4441 1.22298 21.7561C1.59067 25.1254 6.18676 26.81 6.24804 26.81C6.3706 26.8724 16.2369 31.9887 26.4708 30.1793C30.3316 29.493 32.7215 28.3699 33.8246 26.6852C35.1115 24.6886 34.4987 22.1304 33.8246 19.3851C33.7633 19.0731 33.702 18.7612 33.5795 18.4492C32.599 14.2688 22.9778 9.58921 17.8302 7.03105C16.5433 6.40711 15.5628 5.90795 14.8887 5.53359C13.7856 4.97204 12.6826 4.78486 11.7633 4.78486Z" fill="#2D2F44"/>
<path d="M11.4568 8.77928C11.2116 9.52801 11.518 10.2767 12.0083 10.7759C12.2534 11.0255 12.4985 11.2751 12.8049 11.4622C13.1113 11.6494 13.4178 11.8366 13.7242 11.9614C14.0306 12.1486 14.3983 12.211 14.7047 12.3981L15.1949 12.5853L15.6852 12.7101L16.7269 13.0221L17.7687 13.2717C18.4428 13.4589 19.1782 13.5836 19.9136 13.7084C20.6489 13.8332 21.323 13.958 22.0584 14.0204C22.7938 14.1452 23.5292 14.27 24.2032 14.3324C24.9386 14.4572 25.674 14.5196 26.3481 14.6443C24.8773 14.6443 23.4066 14.6443 21.9358 14.5196C21.2005 14.4572 20.4651 14.3948 19.7297 14.27C18.9943 14.1452 18.259 14.0828 17.5849 13.8956L16.4818 13.646L15.44 13.3341L14.8885 13.1469L14.3983 12.8973C14.0306 12.7725 13.7242 12.5853 13.4178 12.3981C13.1113 12.211 12.7437 12.0238 12.4985 11.7742C12.1921 11.587 11.947 11.275 11.7019 10.9631C11.2729 10.3391 11.0891 9.46562 11.4568 8.77928Z" fill="#2D2F44"/>
<path d="M5.57391 24.6266C6.67698 24.377 7.84132 24.2522 9.00566 24.1898C10.17 24.1274 11.3343 24.1274 12.4987 24.2522C13.663 24.377 14.8274 24.6266 15.9304 25.0009C17.0335 25.3753 18.0753 25.9993 19.0558 26.6856L18.7494 27.1847C18.0753 26.748 17.4625 26.2488 16.8497 25.6873C16.2981 25.1257 15.7466 24.5018 15.3789 23.7531C15.0112 23.0043 14.8274 22.1308 15.0112 21.3197C15.1951 20.5086 15.6853 19.8222 16.2368 19.2607C15.7466 19.8846 15.3176 20.571 15.2563 21.3197C15.1951 22.0684 15.3789 22.8172 15.7466 23.5035C16.1143 24.1898 16.6658 24.7514 17.2173 25.2505C17.7689 25.7497 18.3817 26.2488 19.0558 26.6232L18.7494 27.1224C17.8302 26.436 16.8497 25.9369 15.8079 25.5001C14.7661 25.1257 13.663 24.8762 12.4987 24.689C10.2313 24.4394 7.9026 24.4394 5.57391 24.6266Z" fill="#2D2F44"/>
</svg>
