<svg width="35" height="34" viewBox="0 0 35 34" fill="none" xmlns="http://www.w3.org/2000/svg">
<path opacity="0.5" d="M16.4132 31.854C14.0285 31.854 12.0832 30.3673 9.69853 28.2612C8.63172 27.332 7.3139 26.5268 5.93332 25.7834C2.79564 23.9251 -0.467552 22.0048 0.913028 18.5978C1.03854 18.2261 1.2268 17.8545 1.3523 17.4209C2.1681 15.1289 5.87056 7.3239 20.0529 3.66917C20.1784 3.60722 23.4416 2.80192 26.5793 4.66026C28.9011 6.02305 30.5955 8.50085 31.474 12.0317C31.5368 12.3414 31.7251 12.6512 31.9133 12.8989C32.7919 14.0139 35.553 18.0403 33.0429 21.8809C31.0975 24.9162 28.3991 26.279 25.5124 27.7037C24.0691 28.447 22.563 29.1904 20.9942 30.1815C19.2371 31.3584 17.7937 31.854 16.4132 31.854Z" fill="white"/>
<path d="M16.4132 31.854C14.0285 31.854 12.0832 30.3673 9.69853 28.2612C8.63172 27.332 7.3139 26.5268 5.93332 25.7834C2.79564 23.9251 -0.467552 22.0048 0.913028 18.5978C1.03854 18.2261 1.2268 17.8545 1.3523 17.4209C2.1681 15.1289 5.87056 7.3239 20.0529 3.66917C20.1784 3.60722 23.4416 2.80192 26.5793 4.66026C28.9011 6.02305 30.5955 8.50085 31.474 12.0317C31.5368 12.3414 31.7251 12.6512 31.9133 12.8989C32.7919 14.0139 35.553 18.0403 33.0429 21.8809C31.0975 24.9162 28.3991 26.279 25.5124 27.7037C24.0691 28.447 22.563 29.1904 20.9942 30.1815C19.2371 31.3584 17.7937 31.854 16.4132 31.854ZM1.54056 18.7837C0.348245 21.6951 3.23491 23.3676 6.30984 25.164C7.69042 25.9692 9.071 26.7745 10.1378 27.7657C13.7148 30.8629 16.0994 32.6593 20.6804 29.624C22.2493 28.5709 23.7553 27.8276 25.2614 27.0842C28.1481 25.6595 30.6582 24.3587 32.5409 21.5092C34.7372 18.1023 32.5408 14.6334 31.474 13.2706C31.223 12.9609 31.0348 12.5892 30.9093 12.1556C30.0935 8.81058 28.5246 6.45669 26.3282 5.15585C23.4416 3.4214 20.3039 4.22668 20.3039 4.22668C6.37259 7.81947 2.79564 15.3148 2.04259 17.5448C1.85433 18.0403 1.72882 18.412 1.54056 18.7837Z" fill="#2D2F44"/>
<path d="M6.30977 15.934C6.12151 16.3057 6.05876 16.7393 6.18426 17.1729C6.30977 17.5446 6.56078 17.8543 6.93731 18.0401C7.69035 18.3499 8.5689 18.2879 9.3847 18.226C11.079 18.0401 12.7106 17.5445 14.3422 17.049C16.0366 16.6154 17.6682 16.1818 19.3625 15.8721C20.1783 15.6862 21.0569 15.5624 21.9354 15.3765C22.814 15.2526 23.6298 15.1287 24.5711 15.1287H25.3241L24.7593 15.5623C24.3201 15.8721 23.9435 16.2437 23.567 16.6773C23.2532 17.111 22.8767 17.5446 22.8767 18.0401C22.8767 18.5357 23.316 18.9074 23.818 19.0932C24.3201 19.279 24.8848 19.4029 25.4496 19.4648C24.8848 19.4648 24.3201 19.4029 23.7553 19.2171C23.5043 19.1551 23.1905 19.0312 23.0022 18.8454C22.7512 18.6596 22.563 18.3499 22.563 18.0401C22.563 17.4207 22.8767 16.8632 23.2532 16.4295C23.6298 15.9959 24.0063 15.5623 24.4456 15.1907L24.5711 15.6243C22.9395 15.7482 21.1824 16.1198 19.5508 16.4915C17.8564 16.8632 16.2248 17.2348 14.5305 17.6684C12.8989 18.1021 11.1418 18.5357 9.44745 18.6596C8.5689 18.7215 7.69035 18.7215 6.8118 18.3499C6.37253 18.164 6.05876 17.7304 5.996 17.2968C5.996 16.7393 6.12151 16.3057 6.30977 15.934Z" fill="#2D2F44"/>
</svg>
