<svg width="30" height="30" viewBox="0 0 30 30" fill="none" xmlns="http://www.w3.org/2000/svg">
<path opacity="0.5" d="M7.76515 29.5608C8.97262 29.5608 10.5614 29.1218 12.4044 28.6201C13.1034 28.4319 13.8025 28.2438 14.5015 28.0556C16.0903 27.6166 17.6155 27.6793 18.9501 27.6793C20.666 27.742 22.1276 27.742 23.1444 26.7385C24.1613 25.735 24.479 23.8535 24.3519 20.5295C23.9071 10.9336 17.8062 3.21929 17.552 2.96842C16.0267 0.961442 14.438 0.0206721 12.9128 0.146108C11.324 0.334262 9.86233 1.65135 8.78197 4.03463C6.81189 8.36218 5.79507 18.0834 5.15956 24.5434V24.7943C4.96891 26.9894 5.22312 28.3065 6.04928 29.0591C6.43059 29.4354 7.00254 29.5608 7.76515 29.5608Z" fill="white"/>
<path d="M7.76515 29.5608C8.97262 29.5608 10.5614 29.1218 12.4044 28.6201C13.1034 28.4319 13.8025 28.2438 14.5015 28.0556C16.0903 27.6166 17.6155 27.6793 18.9501 27.6793C20.666 27.742 22.1276 27.742 23.1444 26.7385C24.1613 25.735 24.479 23.8535 24.3519 20.5295C23.9071 10.9336 17.8062 3.21929 17.552 2.96842C16.0267 0.961443 14.438 0.0206721 12.9128 0.146108C11.324 0.334262 9.86233 1.65135 8.78197 4.03463C6.81189 8.36218 5.79507 18.0834 5.15956 24.5434V24.7943C4.96891 26.9894 5.22312 28.3065 6.04928 29.0591C6.43059 29.4354 7.00254 29.5608 7.76515 29.5608ZM17.8062 26.9894C16.7258 26.9894 15.5183 27.0521 14.3109 27.3657C13.5483 27.5539 12.8492 27.742 12.2137 27.9302C9.54457 28.6828 7.38385 29.31 6.36703 28.4947C5.73153 27.9302 5.47732 26.7385 5.66797 24.7943V24.5434C6.30348 18.1462 7.25675 8.42489 9.22682 4.22278C10.1801 2.09037 11.5146 0.835983 12.8492 0.710547C14.1838 0.585111 15.5819 1.46319 16.9165 3.28201C16.98 3.34473 23.1444 10.9963 23.5257 20.5295C23.6529 23.6026 23.3351 25.4215 22.5089 26.2368C21.6828 27.0521 20.4118 26.9894 18.823 26.9894C18.5688 27.0521 18.1875 26.9894 17.8062 26.9894Z" fill="#2D2F44"/>
</svg>
