<svg width="33" height="33" viewBox="0 0 33 33" fill="none" xmlns="http://www.w3.org/2000/svg">
<path opacity="0.5" d="M9.79518 31.0994C13.7156 31.0994 18.31 28.0007 22.843 25.0235C23.3943 24.6589 23.9456 24.2944 24.4357 23.9298C30.6839 19.7981 27.6823 14.5728 27.6823 14.5121C21.3116 4.0614 13.9607 0.294307 13.8994 0.294307C11.6329 -0.860126 9.4889 2.1171 9.42764 2.23861C6.11974 5.82343 3.42442 19.0083 4.64956 26.0564C5.01711 28.3045 5.81345 29.7627 6.91609 30.3703C7.77369 30.9172 8.7538 31.0994 9.79518 31.0994Z" fill="white"/>
<path d="M9.79515 31.0994C13.7156 31.0994 18.3099 28.0007 22.843 25.0235C23.3943 24.6589 23.9456 24.2943 24.4357 23.9298C30.6839 19.7981 27.6823 14.5728 27.6823 14.5121C21.3115 4.06139 13.9607 0.2943 13.8994 0.2943C11.6329 -0.860133 9.48887 2.11709 9.42761 2.23861C6.11971 5.82342 3.42439 19.0083 4.64953 26.0564C5.01708 28.3045 5.81342 29.7627 6.91606 30.3703C7.77366 30.9171 8.75377 31.0994 9.79515 31.0994ZM13.5318 0.841136C13.6544 0.901896 20.8215 4.60823 27.0697 14.8158C27.1922 14.9981 29.8263 19.5551 24.0069 23.383C23.4555 23.7475 22.9042 24.1121 22.4142 24.4766C16.901 28.183 11.2041 32.0108 7.03857 29.8235C6.11971 29.3374 5.44588 28.0007 5.1396 25.9349C3.97571 19.0083 6.48725 6.12722 9.79515 2.60316C9.85641 2.60316 11.7554 -0.0702583 13.5318 0.841136Z" fill="#2D2F44"/>
</svg>
