<svg width="31" height="30" viewBox="0 0 31 30" fill="none" xmlns="http://www.w3.org/2000/svg">
<path opacity="0.5" d="M9.62805 29.5871C9.88025 29.5871 10.0694 29.5248 10.0694 29.5248C10.1955 29.5248 16.7527 29.2131 20.3465 29.0884C21.4183 29.0884 22.238 28.7144 22.8685 28.0287C24.1925 26.5949 24.0034 24.2883 24.0034 24.226C24.6969 16.2466 20.7248 4.90085 20.5987 4.52682C19.779 1.90858 18.0136 0.22542 15.9961 0.163081C13.9785 0.100742 12.2761 1.72156 11.3304 4.52682C9.50195 9.82564 7.98875 16.3089 6.97995 23.7896C6.60166 26.3455 6.97995 28.091 7.9257 28.9638C8.5562 29.5248 9.1867 29.5871 9.62805 29.5871Z" fill="white"/>
<path d="M9.62805 29.5871C9.88025 29.5871 10.0694 29.5248 10.0694 29.5248C10.1955 29.5248 16.7527 29.2131 20.3465 29.0884C21.4183 29.0884 22.238 28.7144 22.8685 28.0287C24.1925 26.5949 24.0034 24.2883 24.0034 24.226C24.6969 16.2466 20.7248 4.90085 20.5987 4.52682C19.779 1.90858 18.0136 0.22542 15.9961 0.163081C13.9785 0.100742 12.2761 1.72156 11.3304 4.52682C9.50195 9.82564 7.98875 16.3089 6.97995 23.7896C6.60166 26.3455 6.97995 28.091 7.9257 28.9638C8.5562 29.5248 9.1867 29.5871 9.62805 29.5871ZM15.9961 0.786472H16.0591C17.7615 0.848811 19.3377 2.34494 20.0943 4.71383C20.1573 4.83851 24.1295 16.2466 23.4359 24.226C23.4359 24.2883 23.562 26.4078 22.4271 27.6546C21.9227 28.2157 21.2292 28.5274 20.3465 28.5274C16.6896 28.6521 10.0694 28.9638 10.0063 28.9638C9.94329 28.9638 9.0606 29.1508 8.4301 28.5274C7.61045 27.7793 7.35826 26.1585 7.67351 23.9143C8.6823 16.4959 10.1324 10.0127 12.0239 4.77619C12.8436 2.22029 14.2937 0.786472 15.9961 0.786472Z" fill="#2D2F44"/>
</svg>
