<svg width="42" height="42" viewBox="0 0 42 42" fill="none" xmlns="http://www.w3.org/2000/svg">
<path opacity="0.5" d="M18.6326 41.4116C24.4743 41.4116 30.5645 39.5048 33.4232 37.6595C39.2028 33.8458 41.3157 29.7861 40.3214 24.4963C39.7621 21.5438 39.7621 18.1607 39.8242 15.2083C39.8242 12.6863 39.8864 10.472 39.5135 8.8727C38.7678 5.36662 34.7904 2.47565 34.604 2.35263H34.5419L31.4346 0.691861C26.4008 -1.39948 16.706 5.73569 9.62144 10.9641C9.06213 11.3946 8.56496 11.7637 8.00565 12.1327C2.16396 16.3769 2.3504 19.3909 2.53683 23.1431C2.59898 24.0042 2.66112 24.8653 2.59898 25.788C2.53683 27.8178 2.97185 29.1096 3.84189 29.6631C4.27691 29.9092 4.71193 29.9092 5.0848 29.8477C3.7176 34.4609 7.01132 37.3519 7.07347 37.3519C9.74573 40.3044 14.0959 41.4116 18.6326 41.4116Z" fill="white"/>
<path d="M18.6326 41.4116C24.4743 41.4116 30.5645 39.5048 33.4232 37.6595C39.2028 33.8458 41.3157 29.7861 40.3214 24.4963C39.7621 21.5438 39.7621 18.1607 39.8242 15.2083C39.8242 12.6863 39.8864 10.472 39.5135 8.8727C38.7678 5.36663 34.7904 2.47565 34.604 2.35263H34.5419L31.4346 0.691861C26.4008 -1.39948 16.706 5.73569 9.62144 10.9641C9.06213 11.3946 8.56496 11.7637 8.00565 12.1327C2.16396 16.3769 2.3504 19.3909 2.53683 23.1431C2.59898 24.0042 2.66112 24.8653 2.59898 25.788C2.53683 27.8178 2.97185 29.1096 3.84189 29.6631C4.27691 29.9092 4.71193 29.9092 5.0848 29.8477C3.7176 34.4609 7.01132 37.3519 7.07347 37.3519C9.74573 40.3044 14.0959 41.4116 18.6326 41.4116ZM34.2311 2.7832C34.4797 2.96773 38.2085 5.73569 38.8299 8.93422C39.1406 10.472 39.1406 12.6248 39.0785 15.1467C39.0785 18.1607 39.0163 21.5438 39.5757 24.5578C40.5078 29.6631 38.5813 33.4152 32.9882 37.1059C27.5194 40.735 12.9773 43.1339 7.50848 36.7983C7.32205 36.6753 4.15262 33.8458 5.8927 29.3556L6.20343 28.556L5.45768 28.9865C5.45768 28.9865 4.77407 29.3556 4.15262 29.048C3.7176 28.802 3.15829 28.0024 3.22043 25.7265C3.22043 24.8038 3.15829 23.8812 3.15829 23.0816C2.97185 19.3294 2.78542 16.623 8.37852 12.5633C8.87569 12.1943 9.435 11.8252 9.99431 11.3946C16.9546 6.28928 26.5251 -0.78439 31.186 1.18393L34.2311 2.7832Z" fill="#2D2F44"/>
<path d="M7.38418 28.741C8.12993 29.11 8.87568 29.2946 9.68357 29.4791C10.4915 29.6636 11.2994 29.7251 12.1073 29.7251C12.9151 29.7251 13.723 29.6636 14.5309 29.4791C15.3388 29.3561 16.0846 29.0485 16.8303 28.741C16.0224 28.864 15.2767 28.9255 14.4688 28.987C13.723 29.0485 12.9151 29.11 12.1694 29.0485C11.4236 29.0485 10.6158 28.987 9.80786 28.9255C8.99997 28.9255 8.19208 28.864 7.38418 28.741Z" fill="#2D2F44"/>
<path d="M34.7283 11.7611C33.9826 12.1917 33.2368 12.6838 32.4911 13.1758C31.7453 13.6679 31.0617 14.2215 30.316 14.7136L29.1974 15.5747L30.5646 15.2672C31.4967 15.0827 32.4911 14.9596 33.4233 15.0211C33.9204 15.0826 34.3554 15.1442 34.8526 15.2672C35.2876 15.4517 35.7226 15.6978 36.0955 16.0053C35.8469 15.5747 35.4119 15.2057 34.9769 14.9596C34.5419 14.7136 33.9826 14.5906 33.4854 14.4676C32.9882 14.406 32.4289 14.406 31.9318 14.406C31.4346 14.4675 30.9374 14.5291 30.3781 14.6521L30.6267 15.2057C31.3103 14.6521 31.9939 14.0985 32.6775 13.5449C33.4233 12.9913 34.0447 12.3762 34.7283 11.7611Z" fill="#2D2F44"/>
</svg>
