<svg width="30" height="30" viewBox="0 0 30 30" fill="none" xmlns="http://www.w3.org/2000/svg">
<path opacity="0.5" d="M21.0278 29.5871C20.7756 29.5871 20.5865 29.5248 20.5865 29.5248C20.4604 29.5248 13.9032 29.2131 10.3094 29.0884C9.23755 29.0884 8.4179 28.7144 7.7874 28.0287C6.46336 26.5949 6.65252 24.2883 6.65252 24.226C5.95897 16.2466 9.9311 4.90085 10.0572 4.52682C10.8768 1.90858 12.6422 0.22542 14.6598 0.163081C16.6774 0.100742 18.3798 1.72156 19.3255 4.52682C21.1539 9.82564 22.6671 16.3089 23.6759 23.7896C24.0542 26.3455 23.6759 28.091 22.7302 28.9638C22.0997 29.5248 21.4692 29.5871 21.0278 29.5871Z" fill="white"/>
<path d="M21.0278 29.5871C20.7756 29.5871 20.5865 29.5248 20.5865 29.5248C20.4604 29.5248 13.9032 29.2131 10.3094 29.0884C9.23755 29.0884 8.4179 28.7144 7.7874 28.0287C6.46336 26.5949 6.65252 24.2883 6.65252 24.226C5.95897 16.2466 9.9311 4.90085 10.0572 4.52682C10.8768 1.90858 12.6422 0.22542 14.6598 0.163081C16.6774 0.100742 18.3798 1.72156 19.3255 4.52682C21.1539 9.82564 22.6671 16.3089 23.6759 23.7896C24.0542 26.3455 23.6759 28.091 22.7302 28.9638C22.0997 29.5248 21.4692 29.5871 21.0278 29.5871ZM14.6598 0.786472H14.5968C12.8944 0.848811 11.3182 2.34494 10.5616 4.71383C10.4985 4.83851 6.52641 16.2466 7.21996 24.226C7.21996 24.2883 7.09387 26.4078 8.22876 27.6546C8.73316 28.2157 9.4267 28.5274 10.3094 28.5274C13.9663 28.6521 20.5865 28.9638 20.6495 28.9638C20.7126 28.9638 21.5953 29.1508 22.2258 28.5274C23.0454 27.7793 23.2976 26.1585 22.9824 23.9143C21.9736 16.4959 20.5234 10.0127 18.632 4.77619C17.8123 2.22029 16.3622 0.786472 14.6598 0.786472Z" fill="#2D2F44"/>
</svg>
