<svg width="30" height="30" viewBox="0 0 30 30" fill="none" xmlns="http://www.w3.org/2000/svg">
<path opacity="0.5" d="M21.8907 29.5608C20.6833 29.5608 19.0945 29.1218 17.2515 28.6201C16.5525 28.4319 15.8534 28.2438 15.1543 28.0556C13.5656 27.6166 12.0404 27.6793 10.7058 27.6793C8.98992 27.742 7.52826 27.742 6.51144 26.7385C5.49463 25.735 5.17687 23.8535 5.30397 20.5295C5.74883 10.9336 11.8497 3.21929 12.1039 2.96842C13.6291 0.961442 15.2179 0.0206721 16.7431 0.146108C18.3319 0.334262 19.7936 1.65135 20.8739 4.03463C22.844 8.36218 23.8608 18.0834 24.4963 24.5434V24.7943C24.687 26.9894 24.4328 28.3065 23.6066 29.0591C23.2253 29.4354 22.6533 29.5608 21.8907 29.5608Z" fill="white"/>
<path d="M21.8907 29.5608C20.6833 29.5608 19.0945 29.1218 17.2515 28.6201C16.5525 28.4319 15.8534 28.2438 15.1543 28.0556C13.5656 27.6166 12.0404 27.6793 10.7058 27.6793C8.98992 27.742 7.52826 27.742 6.51144 26.7385C5.49463 25.735 5.17687 23.8535 5.30397 20.5295C5.74883 10.9336 11.8497 3.21929 12.1039 2.96842C13.6291 0.961443 15.2179 0.0206721 16.7431 0.146108C18.3319 0.334262 19.7936 1.65135 20.8739 4.03463C22.844 8.36218 23.8608 18.0834 24.4963 24.5434V24.7943C24.687 26.9894 24.4328 28.3065 23.6066 29.0591C23.2253 29.4354 22.6533 29.5608 21.8907 29.5608ZM11.8497 26.9894C12.9301 26.9894 14.1375 27.0521 15.345 27.3657C16.1076 27.5539 16.8067 27.742 17.4422 27.9302C20.1113 28.6828 22.272 29.31 23.2888 28.4947C23.9244 27.9302 24.1786 26.7385 23.9879 24.7943V24.5434C23.3524 18.1462 22.3991 8.42489 20.4291 4.22278C19.4758 2.09037 18.1412 0.835983 16.8067 0.710547C15.4721 0.585111 14.074 1.46319 12.7394 3.28201C12.6759 3.34473 6.51144 10.9963 6.13013 20.5295C6.00303 23.6026 6.32079 25.4215 7.14695 26.2368C7.97311 27.0521 9.24413 26.9894 10.8329 26.9894C11.0871 27.0521 11.4684 26.9894 11.8497 26.9894Z" fill="#2D2F44"/>
</svg>
