<svg width="42" height="42" viewBox="0 0 42 42" fill="none" xmlns="http://www.w3.org/2000/svg">
<path opacity="0.5" d="M22.9367 41.4116C17.095 41.4116 11.0048 39.5048 8.14607 37.6595C2.36652 33.8458 0.253571 29.7861 1.2479 24.4963C1.80721 21.5438 1.80721 18.1607 1.74507 15.2083C1.74507 12.6863 1.68292 10.472 2.0558 8.8727C2.80154 5.36662 6.77887 2.47565 6.9653 2.35263H7.02745L10.1347 0.691861C15.1685 -1.39948 24.8633 5.73569 31.9479 10.9641C32.5072 11.3946 33.0043 11.7637 33.5637 12.1327C39.4053 16.3769 39.2189 19.3909 39.0325 23.1431C38.9703 24.0042 38.9082 24.8653 38.9703 25.788C39.0325 27.8178 38.5975 29.1096 37.7274 29.6631C37.2924 29.9092 36.8574 29.9092 36.4845 29.8477C37.8517 34.4609 34.558 37.3519 34.4958 37.3519C31.8236 40.3044 27.4734 41.4116 22.9367 41.4116Z" fill="white"/>
<path d="M22.9367 41.4116C17.095 41.4116 11.0048 39.5048 8.14607 37.6595C2.36652 33.8458 0.253571 29.7861 1.2479 24.4963C1.80721 21.5438 1.80721 18.1607 1.74507 15.2083C1.74507 12.6863 1.68292 10.472 2.0558 8.8727C2.80154 5.36663 6.77887 2.47565 6.9653 2.35263H7.02745L10.1347 0.691861C15.1685 -1.39948 24.8633 5.73569 31.9479 10.9641C32.5072 11.3946 33.0043 11.7637 33.5637 12.1327C39.4053 16.3769 39.2189 19.3909 39.0325 23.1431C38.9703 24.0042 38.9082 24.8653 38.9703 25.788C39.0325 27.8178 38.5975 29.1096 37.7274 29.6631C37.2924 29.9092 36.8574 29.9092 36.4845 29.8477C37.8517 34.4609 34.558 37.3519 34.4958 37.3519C31.8236 40.3044 27.4734 41.4116 22.9367 41.4116ZM7.33818 2.7832C7.0896 2.96773 3.36086 5.73569 2.7394 8.93422C2.42867 10.472 2.42867 12.6248 2.49082 15.1467C2.49082 18.1607 2.55296 21.5438 1.99365 24.5578C1.06146 29.6631 2.98798 33.4152 8.58109 37.1059C14.0499 40.735 28.592 43.1339 34.0608 36.7983C34.2473 36.6753 37.4167 33.8458 35.6766 29.3556L35.3659 28.556L36.1116 28.9865C36.1116 28.9865 36.7952 29.3556 37.4167 29.048C37.8517 28.802 38.411 28.0024 38.3489 25.7265C38.3489 24.8038 38.411 23.8812 38.411 23.0816C38.5975 19.3294 38.7839 16.623 33.1908 12.5633C32.6936 12.1943 32.1343 11.8252 31.575 11.3946C24.6147 6.28928 15.0442 -0.78439 10.3833 1.18393L7.33818 2.7832Z" fill="#2D2F44"/>
<path d="M34.1851 28.741C33.4393 29.11 32.6936 29.2946 31.8857 29.4791C31.0778 29.6636 30.2699 29.7251 29.462 29.7251C28.6541 29.7251 27.8462 29.6636 27.0383 29.4791C26.2304 29.3561 25.4847 29.0485 24.739 28.741C25.5468 28.864 26.2926 28.9255 27.1005 28.987C27.8462 29.0485 28.6541 29.11 29.3999 29.0485C30.1456 29.0485 30.9535 28.987 31.7614 28.9255C32.5693 28.9255 33.3772 28.864 34.1851 28.741Z" fill="#2D2F44"/>
<path d="M6.84096 11.7611C7.58671 12.1917 8.33245 12.6838 9.0782 13.1758C9.82395 13.6679 10.5076 14.2215 11.2533 14.7136L12.3719 15.5747L11.0047 15.2672C10.0725 15.0827 9.0782 14.9596 8.14602 15.0211C7.64885 15.0826 7.21383 15.1442 6.71667 15.2672C6.28165 15.4517 5.84663 15.6978 5.47375 16.0053C5.72234 15.5747 6.15736 15.2057 6.59238 14.9596C7.0274 14.7136 7.58671 14.5906 8.08387 14.4676C8.58104 14.406 9.14035 14.406 9.63751 14.406C10.1347 14.4675 10.6318 14.5291 11.1912 14.6521L10.9426 15.2057C10.259 14.6521 9.57537 14.0985 8.89177 13.5449C8.14602 12.9913 7.52456 12.3762 6.84096 11.7611Z" fill="#2D2F44"/>
</svg>
