<svg width="31" height="31" viewBox="0 0 31 31" fill="none" xmlns="http://www.w3.org/2000/svg">
<path opacity="0.5" d="M11.9838 30.4703C16.6924 30.4703 22.5463 23.8009 22.8008 23.5468C22.9917 23.2927 27.1913 17.5761 26.6186 13.8286C26.4913 12.8758 26.0459 12.1771 25.346 11.6689C21.5919 8.93765 13.32 2.14124 13.2564 2.07772C13.1291 1.95069 9.8204 -0.590036 7.33885 0.172181C6.32078 0.489771 5.62085 1.31552 5.23908 2.6494C3.64834 7.98491 3.96649 20.4979 8.03878 27.866C8.86596 29.3905 10.0749 30.2797 11.5384 30.4703C11.6657 30.4703 11.7929 30.4703 11.9838 30.4703Z" fill="white"/>
<path d="M11.9838 30.4703C16.6924 30.4703 22.5463 23.8009 22.8008 23.5468C22.9917 23.2927 27.1913 17.5761 26.6186 13.8286C26.4913 12.8758 26.0459 12.1771 25.346 11.6689C21.5919 8.93765 13.32 2.14124 13.2564 2.07772C13.1291 1.95069 9.8204 -0.590036 7.33885 0.172181C6.32078 0.489771 5.62085 1.31552 5.23908 2.6494C3.64834 7.98491 3.96649 20.4979 8.03878 27.866C8.86596 29.3905 10.0749 30.2797 11.5384 30.4703C11.6657 30.4703 11.7929 30.4703 11.9838 30.4703ZM12.811 2.52236C13.0019 2.64939 21.2101 9.44583 24.9642 12.1771C25.5369 12.6217 25.855 13.1934 25.9823 13.9556C26.4913 17.3856 22.3554 23.1022 22.2918 23.1657C22.2282 23.2292 15.9925 30.3433 11.5384 29.8351C10.2658 29.7081 9.24774 28.9458 8.48419 27.5484C4.53916 20.3074 4.22101 8.04843 5.74811 2.83995C6.06626 1.69662 6.63893 0.997931 7.46611 0.743858C9.62951 0.04516 12.6837 2.45884 12.811 2.52236Z" fill="#2D2F44"/>
</svg>
