<svg width="34" height="34" viewBox="0 0 34 34" fill="none" xmlns="http://www.w3.org/2000/svg">
<path opacity="0.5" d="M23.7553 31.475C23.32 31.475 22.8225 31.475 22.3872 31.4141L21.1434 31.3533C13.2458 30.9271 0.00012207 30.2574 0.00012207 19.7248C0.00012207 13.2104 0.559798 9.31398 1.92789 6.57429C3.17162 4.13901 5.5347 2.37344 8.39526 1.8255C10.8205 1.39932 14.3651 1.03403 17.7232 2.12991C23.1334 3.89549 28.7923 5.47842 28.8545 5.47842C28.9167 5.47842 33.8916 7.00045 32.9588 12.2363C32.337 15.8283 31.7151 22.3427 31.4042 25.9348C31.1554 28.6136 29.1655 30.7444 26.4914 31.1706C25.6208 31.4141 24.688 31.475 23.7553 31.475Z" fill="white"/>
<path d="M23.7553 31.475C23.32 31.475 22.8225 31.475 22.3872 31.4141L21.1434 31.3533C13.2458 30.9271 0.00012207 30.2574 0.00012207 19.7248C0.00012207 13.2104 0.559798 9.31398 1.92789 6.57429C3.17162 4.13901 5.5347 2.37344 8.39526 1.8255C10.8205 1.39932 14.3651 1.03403 17.7232 2.12991C23.1334 3.89549 28.7923 5.47842 28.8545 5.47842C28.9167 5.47842 33.8916 7.00045 32.9588 12.2363C32.337 15.8283 31.7151 22.3427 31.4042 25.9348C31.1554 28.6136 29.1655 30.7444 26.4914 31.1706C25.6208 31.4141 24.688 31.475 23.7553 31.475ZM2.48757 6.8787C1.18166 9.49662 0.621984 13.3322 0.621984 19.7248C0.621984 29.6486 12.997 30.3183 21.2056 30.7445L22.4493 30.8053C23.9418 30.8662 25.2477 30.8662 26.3671 30.6836C28.7302 30.3183 30.5957 28.37 30.7823 25.9956C31.0932 22.4036 31.7151 15.8283 32.337 12.2363C33.2076 7.54839 28.8545 6.20899 28.668 6.14811C28.6058 6.14811 22.9468 4.56517 17.4744 2.7996C14.303 1.7646 10.8205 2.06901 8.45745 2.49519C5.84563 2.98224 3.60692 4.62606 2.48757 6.8787Z" fill="#2D2F44"/>
<path d="M4.66412 14.1243C5.6591 14.8549 6.84064 15.2202 8.02218 15.5855C9.20372 15.9508 10.3853 16.1943 11.5668 16.377C12.8105 16.5596 13.9921 16.6814 15.2358 16.8031C15.5467 16.864 15.8576 16.864 16.1686 16.9858C16.3551 17.0467 16.4795 17.0467 16.6661 17.1684C16.7282 17.2293 16.8526 17.2902 16.9148 17.3511C17.0392 17.412 17.1014 17.6555 17.0392 17.7772C16.977 18.0817 16.7904 18.2034 16.6661 18.3252C16.5417 18.4469 16.4173 18.5078 16.2308 18.6296C15.982 18.8122 15.6711 18.934 15.4223 19.0558C14.303 19.5428 13.1836 20.0299 12.1265 20.5778C11.629 20.8822 11.0693 21.1867 10.8206 21.6128C10.7584 21.7346 10.6962 21.7955 10.6962 21.9172C10.6962 21.9781 10.6962 22.039 10.6962 22.0999L10.7584 22.2825C10.8206 22.5869 10.8827 22.8305 11.0071 23.1349C11.1937 23.6828 11.4424 24.2307 11.6912 24.7787C11.8155 25.0831 11.9399 25.3266 12.0021 25.6919C12.0643 25.8746 12.0643 25.9963 12.0643 26.179C12.0643 26.3616 11.9399 26.5443 11.8155 26.666C11.5046 26.9096 11.1315 26.9096 10.8206 26.9096C10.5096 26.9096 10.1987 26.8487 9.88776 26.7878C9.2659 26.666 8.70623 26.4834 8.08436 26.3007C8.70623 26.4225 9.2659 26.5443 9.88776 26.6051C10.1987 26.666 10.5096 26.666 10.8206 26.666C11.1315 26.666 11.4424 26.6051 11.5668 26.4225C11.7534 26.3007 11.7534 25.9963 11.629 25.7528C11.5668 25.5093 11.4424 25.2049 11.318 24.9613C11.0693 24.4134 10.7584 23.8655 10.5096 23.3175C10.3853 23.0131 10.2609 22.7087 10.1987 22.4043L10.1365 22.1608C10.1365 22.0999 10.1365 21.9781 10.1365 21.8564C10.1365 21.6737 10.2609 21.4911 10.3231 21.3084C10.6962 20.6996 11.2559 20.3952 11.8155 20.0299C12.8727 19.4211 14.0542 18.934 15.1736 18.3861C15.4223 18.2643 15.7333 18.1426 15.982 17.9599C16.1064 17.899 16.2308 17.8381 16.3551 17.7164C16.4795 17.6555 16.5417 17.5337 16.5417 17.5337V17.5946C16.5417 17.5946 16.4795 17.5337 16.4173 17.5337C16.2929 17.4728 16.1686 17.412 16.0442 17.412C15.7955 17.3511 15.4845 17.2902 15.1736 17.2293C13.9921 17.0467 12.7483 16.9858 11.5046 16.6814C10.2609 16.4379 9.07934 16.1334 7.89781 15.7073C6.77846 15.4029 5.59692 14.9158 4.66412 14.1243Z" fill="#2d2f44"/>
</svg>
