<svg width="40" height="40" viewBox="0 0 40 40" fill="none" xmlns="http://www.w3.org/2000/svg">
<path opacity="0.5" d="M16.0737 39.0262C20.6922 39.0262 25.1259 34.4706 26.8501 31.4751C30.2985 25.5466 38.0575 11.5054 36.0254 8.38514L35.9638 8.32273C35.9022 8.19792 26.8501 -1.2877 5.79001 0.147626C4.74317 0.210031 3.88105 1.0213 3.7579 2.08219C3.14211 6.88741 2.28 19.3061 7.32949 31.1631C9.48476 36.2179 12.2558 38.839 15.6427 39.0886C15.8274 39.0262 15.9506 39.0262 16.0737 39.0262Z" fill="white"/>
<path d="M16.0737 39.0262C20.6922 39.0262 25.1259 34.4706 26.8501 31.4751C30.2985 25.5466 38.0575 11.5054 36.0254 8.38513L35.9638 8.32273C35.9022 8.19792 26.8501 -1.28771 5.79001 0.147618C4.74317 0.210024 3.88106 1.02129 3.7579 2.08219C3.14211 6.8874 2.28 19.3061 7.32949 31.1631C9.48476 36.2179 12.2558 38.839 15.6427 39.0886C15.8274 39.0262 15.9506 39.0262 16.0737 39.0262ZM35.5327 8.69716C36.949 11.0686 31.7148 21.8647 26.2959 31.1007C24.818 33.5969 20.3227 38.6518 15.6427 38.3397C12.5021 38.1525 9.91582 35.5939 7.88371 30.7887C2.95738 19.1189 3.7579 6.76259 4.37369 2.01978C4.49685 1.27092 5.11264 0.709267 5.85159 0.646861C26.1727 -0.663652 35.1017 8.19792 35.5327 8.69716Z" fill="#2D2F44"/>
</svg>
