<svg width="44" height="45" viewBox="0 0 44 45" fill="none" xmlns="http://www.w3.org/2000/svg">
<path opacity="0.5" d="M19.9626 44.5188C15.9947 44.5188 11.5928 43.2032 8.12093 38.8179C-2.66675 25.3488 4.89703 13.5085 5.14502 13.0699C12.1508 1.10435 23.9925 0.728489 27.4024 0.91643C30.3163 1.04172 32.9822 2.4826 34.7801 4.86319C36.5781 7.18113 37.2601 10.1255 36.7021 12.8194C35.6481 17.7685 36.8881 19.0841 36.9501 19.0841L37.0121 19.1467L37.6321 19.9611C41.4139 25.2235 42.5299 26.8523 41.5999 31.9894C41.042 35.1217 33.7882 41.5117 25.3564 43.7044C23.6825 44.2055 21.8225 44.5188 19.9626 44.5188Z" fill="white"/>
<path d="M19.9626 44.5188C15.9947 44.5188 11.5928 43.2032 8.12093 38.8179C-2.66675 25.3488 4.89703 13.5085 5.14502 13.0699C12.1508 1.10435 23.9925 0.728489 27.4024 0.91643C30.3163 1.04172 32.9822 2.4826 34.7801 4.86319C36.5781 7.18113 37.2601 10.1255 36.7021 12.8194C35.6481 17.7685 36.8881 19.0841 36.9501 19.0841L37.0121 19.1467L37.6321 19.9611C41.414 25.2235 42.5299 26.8523 41.5999 31.9894C41.042 35.1217 33.7882 41.5117 25.3564 43.7044C23.6825 44.2055 21.8225 44.5188 19.9626 44.5188ZM26.3484 1.60553C22.0705 1.60553 11.9028 2.79584 5.64101 13.4458C5.57901 13.5711 -2.10876 25.1608 8.55492 38.442C13.5148 44.6441 20.3346 44.4561 25.1084 43.2032C33.1062 41.1358 40.36 34.9338 40.918 31.9894C41.7859 27.1029 40.794 25.662 37.0741 20.4623L36.5161 19.6479C36.2681 19.3973 35.0901 17.8311 36.1441 12.8194C36.6401 10.3135 35.9581 7.557 34.3462 5.36436C32.6722 3.17171 30.1303 1.7935 27.4024 1.6682C27.0924 1.60556 26.7824 1.60553 26.3484 1.60553Z" fill="#2D2F44"/>
<path d="M20.2726 8.43427C21.5125 10.1884 22.0085 12.5063 21.5745 14.699C21.1405 16.8916 19.6526 18.771 17.9786 20.0866C16.2427 21.4648 14.3207 22.3419 12.2748 23.0937C10.2289 23.8454 8.18292 24.3466 6.07498 24.6598C7.06695 24.3466 8.12092 24.096 9.11289 23.7201C9.60888 23.5948 10.1049 23.4069 10.6008 23.219C11.0968 23.031 11.5928 22.8431 12.0888 22.6552C12.5848 22.4672 13.0808 22.2166 13.5148 22.0287C14.0107 21.8407 14.4447 21.5901 14.9407 21.3395C15.4367 21.089 15.8707 20.8384 16.3047 20.5251C16.7387 20.2119 17.1727 19.9613 17.6066 19.5854C19.2806 18.3325 20.5826 16.641 21.1405 14.5737C21.3885 13.5713 21.4505 12.5063 21.2645 11.4413C21.0785 10.3763 20.7685 9.37397 20.2726 8.43427Z" fill="#2D2F44"/>
<path d="M10.8488 34.8726C11.6548 34.8726 12.3988 34.8726 13.2048 34.8726C14.0108 34.8726 14.7547 34.81 15.4987 34.7473C17.0487 34.5594 18.5986 34.3714 20.0246 33.8702C21.5125 33.4317 22.8765 32.8053 24.0545 31.8029C25.2324 30.8005 25.9764 29.4223 26.3484 27.8561C26.2864 28.6706 26.1004 29.4223 25.7904 30.1741C25.4804 30.9259 24.9844 31.5523 24.3644 32.1161C23.1865 33.3064 21.6985 33.9956 20.2106 34.4341C18.6606 34.8726 17.1107 35.1232 15.4987 35.1859C13.9488 35.2485 12.3368 35.1859 10.8488 34.8726Z" fill="#2D2F44"/>
<path d="M30.7501 20.2748C29.9442 20.3374 29.1382 20.4627 28.4562 20.8386C28.1462 21.0266 27.8362 21.2772 27.6502 21.5904C27.5882 21.7783 27.4642 21.9036 27.4022 22.0916C27.3402 22.2795 27.3402 22.4675 27.2782 22.6554C27.2162 23.4072 27.4022 24.1589 27.8362 24.7854C28.2702 25.3492 28.9522 25.7878 29.6342 25.9757C30.3781 26.2263 31.1221 26.2889 31.9281 26.2889C32.7341 26.2889 33.4781 26.2263 34.222 25.9757C34.966 25.7878 35.71 25.4118 36.33 24.9733C36.95 24.5348 37.5699 23.9083 37.6939 23.0939C37.6939 23.5324 37.5699 23.9083 37.3219 24.2842C37.136 24.6601 36.826 24.9733 36.516 25.2239C35.896 25.7877 35.152 26.1636 34.346 26.4142C32.7341 26.9154 31.0601 26.978 29.4482 26.5395C28.6422 26.2889 27.8362 25.8504 27.3402 25.0986C26.8443 24.3469 26.6583 23.4072 26.7823 22.5927C26.8443 22.1542 26.9683 21.7157 27.2782 21.4025C27.5262 21.0266 27.8982 20.776 28.2702 20.588C29.1382 20.2748 29.9442 20.1495 30.7501 20.2748Z" fill="#2D2F44"/>
</svg>
