<svg width="44" height="44" viewBox="0 0 44 44" fill="none" xmlns="http://www.w3.org/2000/svg">
<path opacity="0.5" d="M20.6303 43.3235C31.0299 43.3235 34.6203 40.1801 39.0154 36.3587C39.3249 36.0505 39.6963 35.8039 40.0058 35.4957C45.6389 30.6881 42.8533 24.9559 42.8533 24.8943C42.8533 24.8943 41.5534 19.9018 41.2439 11.7041C40.9343 3.25996 32.8251 0.609596 32.7013 0.54796C28.6157 -0.561493 24.9635 1.53414 24.592 1.71905C16.8542 4.36941 7.6307 11.211 3.54513 14.9092C1.25473 17.0049 0.511902 24.8943 2.98801 31.9825C5.34031 38.7008 9.9211 42.6455 15.8019 43.077C17.6589 43.2619 19.2065 43.3235 20.6303 43.3235Z" fill="white"/>
<path d="M20.6303 43.3235C31.0299 43.3235 34.6203 40.1801 39.0154 36.3587C39.3249 36.0505 39.6963 35.8039 40.0058 35.4957C45.6389 30.6881 42.8533 24.9559 42.8533 24.8943C42.8533 24.8943 41.5534 19.9018 41.2439 11.7041C40.9343 3.25996 32.8251 0.609596 32.7013 0.54796C28.6157 -0.561493 24.9635 1.53414 24.592 1.71905C16.8542 4.36941 7.63071 11.211 3.54513 14.9092C1.25473 17.0049 0.511898 24.8943 2.98801 31.9825C5.34031 38.7008 9.9211 42.6455 15.8019 43.077C17.6589 43.2619 19.2065 43.3235 20.6303 43.3235ZM32.5775 1.16432C32.8251 1.22596 40.3772 3.81468 40.6248 11.7658C40.9343 20.025 42.2962 25.0792 42.2962 25.1408C42.42 25.3874 44.8961 30.5648 39.6344 35.0643C39.263 35.3725 38.9535 35.619 38.6439 35.9272C33.6917 40.1801 29.7919 43.5701 15.9257 42.5223C8.31163 41.9676 4.96889 35.619 3.60703 31.8592C1.25473 25.1408 1.87376 17.3747 3.97845 15.4639C8.24973 11.5192 17.597 4.8625 24.7777 2.39705H24.8396C24.9635 2.33541 28.6157 0.116506 32.5775 1.16432Z" fill="#2D2F44"/>
<path d="M15.0589 33.7692C16.6683 33.2761 18.3397 32.968 20.073 32.968C20.9396 33.0296 21.8063 33.0912 22.611 33.3994C23.0443 33.5843 23.4776 33.8309 23.8491 34.0774C23.7252 33.1529 23.6633 32.2283 23.6014 31.3038C23.5395 30.2559 23.6014 29.2081 23.6633 28.1603C23.7252 26.1263 23.7872 24.154 23.8491 22.12C22.8586 21.6269 22.1158 20.8256 21.6825 19.901C21.1872 18.9149 20.9396 17.8671 20.7539 16.8192C20.4444 14.7236 20.5682 12.628 21.0015 10.5323C20.9396 11.5802 20.8777 12.628 20.9396 13.6758C20.9396 14.7236 21.0634 15.7714 21.2491 16.7576C21.4348 17.7438 21.7444 18.73 22.1777 19.6545C22.6729 20.5174 23.3538 21.2571 24.2205 21.6885C25.0871 22.12 26.1395 22.12 27.1299 21.9967C27.6251 21.9351 28.1203 21.8118 28.6156 21.6885C29.1108 21.5036 29.606 21.3803 30.0393 21.1338C30.9679 20.764 31.8964 20.2709 32.8249 19.7778C33.7535 19.2847 34.6201 18.73 35.4868 18.1752C33.8773 19.4696 32.144 20.7023 30.225 21.5652C29.7298 21.8118 29.2346 21.9967 28.7394 22.1816C28.2441 22.3049 27.687 22.4898 27.1918 22.5514C26.1395 22.7363 24.9633 22.6747 23.9729 22.2432H23.911C23.9729 24.2156 24.0348 26.2496 24.0967 28.2219C24.1586 29.2698 24.2205 30.3176 24.1586 31.3654C24.0967 32.3516 24.0348 33.2761 23.911 34.2623C24.1586 34.5089 24.4062 34.6938 24.5919 35.0019C25.6442 36.4812 25.7061 38.3303 25.2728 39.9328C25.3966 39.1316 25.3347 38.2687 25.2109 37.4674C25.0871 36.6661 24.7157 35.9265 24.2205 35.3101C23.1681 34.0774 21.4968 33.6459 19.8873 33.6459C18.2778 33.6459 16.6064 33.8925 14.997 34.2623C14.1922 34.4472 13.3875 34.6321 12.5828 34.9403C11.778 35.1252 10.9733 35.4334 10.1686 35.6799C11.9018 34.8787 13.4494 34.2007 15.0589 33.7692Z" fill="#2D2F44"/>
</svg>
