<svg width="34" height="34" viewBox="0 0 34 34" fill="none" xmlns="http://www.w3.org/2000/svg">
<path opacity="0.5" d="M12.8102 32.1877C21.802 32.1877 30.6699 26.0274 32.4682 24.1416C34.2666 22.1929 33.1504 13.9583 33.0884 13.5183C32.7783 10.061 29.1196 7.10655 25.2127 3.90069C20.9339 0.443395 17.2751 3.08352 17.2131 3.08352C17.1511 3.14638 11.2599 8.86663 4.56251 14.084C1.27584 16.6613 -0.212471 20.5586 0.655708 24.2673C1.64791 28.2275 4.9966 31.0562 9.70957 31.8734C10.8258 32.1248 11.818 32.1877 12.8102 32.1877Z" fill="white"/>
<path d="M12.8102 32.1877C21.802 32.1877 30.6699 26.0274 32.4682 24.1416C34.2666 22.1929 33.1504 13.9583 33.0884 13.5183C32.7783 10.061 29.1196 7.10655 25.2127 3.90069C20.9339 0.443395 17.2751 3.08352 17.2131 3.08352C17.1511 3.14638 11.2599 8.86663 4.56251 14.084C1.27584 16.6613 -0.212471 20.5586 0.655708 24.2673C1.64791 28.2275 4.9966 31.0562 9.70957 31.8734C10.8258 32.1248 11.818 32.1877 12.8102 32.1877ZM20.6238 2.76922C21.802 2.76922 23.2904 3.14637 24.8407 4.46643C28.6234 7.54657 32.1582 10.501 32.4682 13.644C32.7783 15.9698 33.3364 22.3187 31.9721 23.7644C30.1118 25.7759 19.3836 33.0048 9.83359 31.3705C5.36868 30.6162 2.14401 27.9132 1.27584 24.2044C0.407658 20.7472 1.83395 17.0384 4.93459 14.6497C11.694 9.43236 17.5852 3.71211 17.6472 3.64925C17.7092 3.58639 18.8875 2.76922 20.6238 2.76922Z" fill="#2D2F44"/>
<path d="M19.1974 7.92273C19.2595 8.99135 19.0114 9.99711 18.5153 10.8771C18.0192 11.7572 17.2751 12.4486 16.4069 12.9515L16.0968 13.1401L15.7867 13.3287L15.1046 13.7058C14.6085 13.8944 14.1744 14.083 13.6783 14.2716C13.1822 14.3973 12.6861 14.5859 12.19 14.7116C11.6939 14.8373 11.1978 14.963 10.7017 15.0888C11.1978 15.0888 11.7559 15.0259 12.252 14.963C12.7481 14.9002 13.3062 14.7745 13.8023 14.6487C14.2984 14.523 14.7945 14.3344 15.2906 14.1459L16.0348 13.7687L16.4069 13.5801L16.7169 13.3287C17.6471 12.7629 18.4533 11.9458 18.8874 10.94C19.4455 10.1228 19.5075 8.92849 19.1974 7.92273Z" fill="#2D2F44"/>
<path d="M19.8177 23.3258C20.0038 23.2001 20.2518 23.0744 20.4379 23.0115C20.1278 22.6972 19.8797 22.3829 19.6317 22.0686C19.3216 21.6914 19.1976 21.1886 18.9495 20.7485C18.5155 19.8685 18.0814 18.9885 17.6473 18.1084L17.7093 18.0456C18.2674 18.8627 18.8255 19.6799 19.3836 20.4971C19.6317 20.9371 19.9418 21.3143 20.1898 21.7543C20.3758 22.1315 20.4999 22.5086 20.6239 22.8858C21.306 22.5715 22.0502 22.3829 22.7323 22.2572C23.7865 22.1315 24.7787 22.1943 25.7709 22.3829C26.7632 22.5715 27.7554 22.8858 28.6855 23.3258C27.6933 23.0744 26.7011 22.9486 25.7089 22.8858C24.7167 22.8229 23.7245 22.8229 22.7943 22.9486C21.8021 23.0744 20.8719 23.3258 20.0038 23.7658C19.1356 24.2058 18.3914 24.8344 17.7093 25.5888C18.2054 24.7087 18.8875 23.8915 19.8177 23.3258Z" fill="#2D2F44"/>
</svg>
