<svg width="42" height="42" viewBox="0 0 42 42" fill="none" xmlns="http://www.w3.org/2000/svg">
<path opacity="0.5" d="M18.7046 40.9159C11.7859 40.9159 5.05259 39.2799 3.57002 35.0641C3.3847 34.8124 3.07583 34.1203 2.95228 31.9809C2.95228 30.9742 2.39631 29.9674 1.84035 28.8348C0.975515 27.1359 0.0489071 25.2482 0.172455 22.7313C0.234229 21.9134 0.357777 21.0954 0.543098 20.1515C1.40793 16.3762 3.44647 12.7896 6.34984 9.83227C10.2416 5.93109 17.8398 -0.235293 25.5615 1.7153C36.9897 4.67265 35.6924 10.7761 35.6307 11.0278C35.6307 11.0907 35.1365 20.0257 39.0282 23.7381C40.5108 25.1853 41.0668 27.2617 40.5726 29.5899C39.7695 33.6798 35.8777 37.4552 30.6887 39.217C27.5383 40.2237 23.0906 40.9159 18.7046 40.9159Z" fill="white"/>
<path d="M18.7046 40.9159C11.7859 40.9159 5.05259 39.2799 3.57002 35.0641C3.3847 34.8124 3.07583 34.1203 2.95228 31.9809C2.95228 30.9742 2.39631 29.9674 1.84035 28.8348C0.975515 27.1359 0.0489071 25.2482 0.172455 22.7313C0.234229 21.9134 0.357777 21.0954 0.543098 20.1515C1.40793 16.3762 3.44647 12.7896 6.34984 9.83227C10.2416 5.93109 17.8398 -0.235293 25.5615 1.7153C36.9897 4.67265 35.6924 10.7761 35.6307 11.0278C35.6307 11.0907 35.1365 20.0257 39.0282 23.7381C40.5108 25.1853 41.0668 27.2617 40.5726 29.5899C39.7695 33.6798 35.8777 37.4552 30.6887 39.217C27.5383 40.2237 23.0906 40.9159 18.7046 40.9159ZM1.16084 20.2774C0.975515 21.1583 0.851967 21.9763 0.790193 22.7313C0.666646 25.0595 1.53148 26.8842 2.33454 28.4573C2.95228 29.6528 3.50824 30.7225 3.50824 31.918C3.57002 34.1832 3.94066 34.6237 3.94066 34.6237L4.00243 34.6866V34.7495C6.10275 41.0417 21.4844 41.5451 30.4417 38.5878C35.3836 36.9518 39.09 33.3652 39.9548 29.4011C40.3872 27.3247 39.9548 25.437 38.5958 24.1785C34.5187 20.2774 35.0129 11.2795 35.0129 10.9019C35.0747 10.5873 36.1866 5.1131 25.3762 2.2816C17.9633 0.393926 10.4887 6.43447 6.72048 10.2098C4.00243 13.1042 2.02567 16.565 1.16084 20.2774Z" fill="#2D2F44"/>
<path d="M15.5543 7.25146C17.0987 8.57283 18.3959 10.3347 19.0136 12.4111C19.3225 13.4179 19.3843 14.5504 19.1372 15.6201C18.8901 16.6898 18.3341 17.6336 17.5928 18.4516C16.172 20.0247 14.2571 21.0944 12.3421 21.8494C10.4271 22.6045 8.45031 23.1708 6.41177 23.5483C7.40016 23.2337 8.38854 22.9191 9.31515 22.5416C9.80934 22.3528 10.3035 22.227 10.7359 21.9753L11.4155 21.6607L12.095 21.3461C13.9482 20.4651 15.7396 19.4584 17.0369 17.9483C17.7164 17.1932 18.2106 16.3123 18.4577 15.3684C18.7048 14.4246 18.7048 13.4179 18.4577 12.4111C18.2106 11.4043 17.7782 10.4605 17.284 9.6425C16.9133 8.82451 16.2338 8.00653 15.5543 7.25146Z" fill="#2D2F44"/>
<path d="M35.1367 30.6593C34.6425 30.848 34.0865 30.9739 33.5923 31.0368C33.0364 31.0997 32.5422 31.1627 31.9862 31.1627C31.492 31.1627 30.9978 31.0997 30.5036 31.0997L27.5385 28.457L30.0712 31.5402C30.133 32.6098 29.9477 33.6166 29.4535 34.4975C28.8975 35.4414 28.0327 36.0706 27.0443 36.4481C26.0559 36.8257 24.944 37.0773 23.8321 37.1403C22.7201 37.2032 21.6082 37.2661 20.4963 37.0774C21.0522 37.2661 21.6082 37.329 22.1642 37.4549C22.7201 37.5178 23.2761 37.5807 23.8321 37.5178C24.944 37.5178 26.1177 37.392 27.2296 36.9515C28.3416 36.574 29.3299 35.8189 30.0095 34.7492C30.5654 33.8054 30.7507 32.6728 30.689 31.6031C31.6773 31.666 32.7275 31.6031 33.7159 31.4144C34.2719 31.2885 34.8278 31.0997 35.322 30.848C35.8162 30.5964 36.2486 30.1559 36.4957 29.6525C36.1251 30.1559 35.6309 30.4705 35.1367 30.6593Z" fill="#2D2F44"/>
</svg>
