<svg width="35" height="34" viewBox="0 0 35 34" fill="none" xmlns="http://www.w3.org/2000/svg">
<path opacity="0.5" d="M18.2427 31.854C20.6274 31.854 22.5727 30.3673 24.9573 28.2612C26.0242 27.332 27.342 26.5268 28.7226 25.7834C31.8602 23.9251 35.1234 22.0048 33.7429 18.5978C33.6173 18.2261 33.4291 17.8545 33.3036 17.4209C32.4878 15.1289 28.7853 7.3239 14.603 3.66917C14.4775 3.60722 11.2143 2.80192 8.07663 4.66026C5.75474 6.02305 4.0604 8.50085 3.18185 12.0317C3.11909 12.3414 2.93083 12.6512 2.74257 12.8989C1.86402 14.0139 -0.897137 18.0403 1.61301 21.8809C3.55837 24.9162 6.25677 26.279 9.14344 27.7037C10.5868 28.447 12.0929 29.1904 13.6617 30.1815C15.4188 31.3584 16.8621 31.854 18.2427 31.854Z" fill="white"/>
<path d="M18.2427 31.854C20.6274 31.854 22.5727 30.3673 24.9573 28.2612C26.0242 27.332 27.342 26.5268 28.7226 25.7834C31.8602 23.9251 35.1234 22.0048 33.7429 18.5978C33.6173 18.2261 33.4291 17.8545 33.3036 17.4209C32.4878 15.1289 28.7853 7.3239 14.603 3.66917C14.4775 3.60722 11.2143 2.80192 8.07663 4.66026C5.75474 6.02305 4.0604 8.50085 3.18185 12.0317C3.11909 12.3414 2.93083 12.6512 2.74257 12.8989C1.86402 14.0139 -0.897137 18.0403 1.61301 21.8809C3.55837 24.9162 6.25677 26.279 9.14344 27.7037C10.5868 28.447 12.0929 29.1904 13.6617 30.1815C15.4188 31.3584 16.8621 31.854 18.2427 31.854ZM33.1153 18.7837C34.3076 21.6951 31.421 23.3676 28.346 25.164C26.9655 25.9692 25.5849 26.7745 24.5181 27.7657C20.9411 30.8629 18.5565 32.6593 13.9755 29.624C12.4066 28.5709 10.9005 27.8276 9.39445 27.0842C6.50778 25.6595 3.99764 24.3587 2.11503 21.5092C-0.0813446 18.1023 2.11504 14.6334 3.18185 13.2706C3.43286 12.9609 3.62112 12.5892 3.74663 12.1556C4.56242 8.81058 6.13127 6.45669 8.32764 5.15585C11.2143 3.4214 14.352 4.22668 14.352 4.22668C28.2833 7.81947 31.8602 15.3148 32.6133 17.5448C32.8016 18.0403 32.9271 18.412 33.1153 18.7837Z" fill="#2D2F44"/>
<path d="M28.3461 15.934C28.5343 16.3057 28.5971 16.7393 28.4716 17.1729C28.3461 17.5446 28.0951 17.8543 27.7185 18.0401C26.9655 18.3499 26.087 18.2879 25.2712 18.226C23.5768 18.0401 21.9452 17.5445 20.3136 17.049C18.6193 16.6154 16.9877 16.1818 15.2933 15.8721C14.4775 15.6862 13.599 15.5624 12.7204 15.3765C11.8419 15.2526 11.0261 15.1287 10.0848 15.1287H9.33174L9.89652 15.5623C10.3358 15.8721 10.7123 16.2437 11.0888 16.6773C11.4026 17.111 11.7791 17.5446 11.7791 18.0401C11.7791 18.5357 11.3399 18.9074 10.8378 19.0932C10.3358 19.279 9.77102 19.4029 9.20624 19.4648C9.77102 19.4648 10.3358 19.4029 10.9006 19.2171C11.1516 19.1551 11.4654 19.0312 11.6536 18.8454C11.9046 18.6596 12.0929 18.3499 12.0929 18.0401C12.0929 17.4207 11.7791 16.8632 11.4026 16.4295C11.0261 15.9959 10.6496 15.5623 10.2103 15.1907L10.0848 15.6243C11.7164 15.7482 13.4735 16.1198 15.1051 16.4915C16.7994 16.8632 18.431 17.2348 20.1254 17.6684C21.757 18.1021 23.5141 18.5357 25.2084 18.6596C26.087 18.7215 26.9655 18.7215 27.8441 18.3499C28.2833 18.164 28.5971 17.7304 28.6599 17.2968C28.6599 16.7393 28.5343 16.3057 28.3461 15.934Z" fill="#2D2F44"/>
</svg>
