<svg width="29" height="29" viewBox="0 0 29 29" fill="none" xmlns="http://www.w3.org/2000/svg">
<path opacity="0.5" d="M15.5765 28.1774C13.8498 28.1774 12.0615 27.2884 10.3348 25.5102C3.24295 18.3977 1.70125 15.9845 3.48962 11.6661C4.22963 9.88799 5.33966 8.23685 6.81969 6.77623C9.2864 4.36304 14.3432 0.425716 20.6333 0.806747C22.4833 0.933757 23.9017 1.69582 24.8267 3.15644C27.9718 7.98282 24.5184 18.5247 24.395 18.9692C24.2717 19.2867 21.5583 26.9073 16.7482 28.0504C16.3782 28.1139 15.9465 28.1774 15.5765 28.1774Z" fill="white"/>
<path d="M15.5765 28.1774C13.8498 28.1774 12.0615 27.2884 10.3348 25.5102C3.24295 18.3977 1.70125 15.9845 3.48962 11.6661C4.22963 9.88799 5.33966 8.23685 6.81969 6.77623C9.2864 4.36304 14.3432 0.425716 20.6333 0.806747C22.4833 0.933757 23.9017 1.69582 24.8267 3.15644C27.9718 7.98282 24.5184 18.5247 24.395 18.9692C24.2717 19.2867 21.5583 26.9073 16.7482 28.0504C16.3782 28.1139 15.9465 28.1774 15.5765 28.1774ZM4.04463 11.9201C2.3796 15.9844 3.9213 18.2071 10.7664 25.0657C12.7398 27.0978 14.7132 27.8599 16.6249 27.4154C21.065 26.3358 23.7784 18.8422 23.7784 18.7787C23.84 18.6516 27.2318 8.10982 24.2717 3.53746C23.47 2.26735 22.2367 1.56883 20.5716 1.50533C14.5282 1.12429 9.59474 4.93458 7.25136 7.28427C5.833 8.61787 4.72298 10.2055 4.04463 11.9201Z" fill="#2D2F44"/>
<path d="M10.7664 8.04237C10.7664 7.66134 10.8281 7.21679 11.0131 6.83576C11.1981 6.45473 11.4448 6.0737 11.8765 5.88318C12.3081 5.69267 12.7398 5.69269 13.1715 5.8197C13.6032 6.01021 13.9115 6.32773 14.2198 6.64525C15.2682 7.97886 15.8232 9.50299 16.8716 10.7096C17.3649 11.3446 17.9199 11.8527 18.5983 12.2337C19.2149 12.5512 20.0783 12.7417 20.8183 13.1863C21.5583 13.5673 22.2367 14.0118 22.7917 14.7104C23.0384 15.0279 23.285 15.4724 23.2234 15.917C23.2234 16.3615 22.915 16.7426 22.545 16.9331C22.915 16.7426 23.1 16.298 23.0384 15.917C23.0384 15.5359 22.7917 15.2184 22.545 14.9009C22.0517 14.3294 21.3117 13.9483 20.6333 13.6308C19.8933 13.3133 19.1533 13.1228 18.3516 12.8052C17.5499 12.4242 16.9332 11.8526 16.4399 11.1541C15.9465 10.519 15.5149 9.75699 15.0832 9.05844C14.7132 8.35988 14.3432 7.59783 13.9115 6.96278C13.7265 6.64525 13.4182 6.39123 13.1098 6.20071C12.8015 6.0737 12.3698 6.07372 12.0615 6.13722C11.6915 6.26423 11.4448 6.51826 11.2598 6.89929C10.8898 7.21681 10.8281 7.59784 10.7664 8.04237Z" fill="#2D2F44"/>
</svg>
