<svg width="34" height="34" viewBox="0 0 34 34" fill="none" xmlns="http://www.w3.org/2000/svg">
<path opacity="0.5" d="M9.81402 31.475C10.2493 31.475 10.7468 31.475 11.1821 31.4141L12.4258 31.3533C20.3235 30.9271 33.5692 30.2574 33.5692 19.7248C33.5692 13.2104 33.0095 9.31398 31.6414 6.57429C30.3977 4.13901 28.0346 2.37344 25.174 1.8255C22.7488 1.39932 19.2041 1.03403 15.8461 2.12991C10.4359 3.89549 4.77694 5.47842 4.71475 5.47842C4.65257 5.47842 -0.32233 7.00045 0.610462 12.2363C1.23232 15.8283 1.85419 22.3427 2.16512 25.9348C2.41386 28.6136 4.40382 30.7444 7.07783 31.1706C7.94843 31.4141 8.88123 31.475 9.81402 31.475Z" fill="white"/>
<path d="M9.81402 31.475C10.2493 31.475 10.7468 31.475 11.1821 31.4141L12.4258 31.3533C20.3235 30.9271 33.5692 30.2574 33.5692 19.7248C33.5692 13.2104 33.0095 9.31398 31.6414 6.57429C30.3977 4.13901 28.0346 2.37344 25.174 1.8255C22.7488 1.39932 19.2041 1.03403 15.8461 2.12991C10.4359 3.89549 4.77694 5.47842 4.71475 5.47842C4.65257 5.47842 -0.32233 7.00045 0.610462 12.2363C1.23232 15.8283 1.85419 22.3427 2.16512 25.9348C2.41386 28.6136 4.40382 30.7444 7.07783 31.1706C7.94843 31.4141 8.88123 31.475 9.81402 31.475ZM31.0817 6.8787C32.3876 9.49662 32.9473 13.3322 32.9473 19.7248C32.9473 29.6486 20.5722 30.3183 12.3637 30.7445L11.1199 30.8053C9.62746 30.8662 8.32155 30.8662 7.2022 30.6836C4.83912 30.3183 2.97354 28.37 2.78698 25.9956C2.47605 22.4036 1.85419 15.8283 1.23232 12.2363C0.361717 7.54839 4.71475 6.20899 4.90131 6.14811C4.9635 6.14811 10.6224 4.56517 16.0948 2.7996C19.2663 1.7646 22.7488 2.06901 25.1118 2.49519C27.7236 2.98224 29.9624 4.62606 31.0817 6.8787Z" fill="#2D2F44"/>
<path d="M28.9052 14.1243C27.9102 14.8549 26.7286 15.2202 25.5471 15.5855C24.3656 15.9508 23.184 16.1943 22.0025 16.377C20.7588 16.5596 19.5772 16.6814 18.3335 16.8031C18.0226 16.864 17.7116 16.864 17.4007 16.9858C17.2141 17.0467 17.0898 17.0467 16.9032 17.1684C16.841 17.2293 16.7167 17.2902 16.6545 17.3511C16.5301 17.412 16.4679 17.6555 16.5301 17.7772C16.5923 18.0817 16.7788 18.2034 16.9032 18.3252C17.0276 18.4469 17.152 18.5078 17.3385 18.6296C17.5873 18.8122 17.8982 18.934 18.1469 19.0558C19.2663 19.5428 20.3856 20.0299 21.4428 20.5778C21.9403 20.8822 22.5 21.1867 22.7487 21.6128C22.8109 21.7346 22.8731 21.7955 22.8731 21.9172C22.8731 21.9781 22.8731 22.039 22.8731 22.0999L22.8109 22.2825C22.7487 22.5869 22.6865 22.8305 22.5622 23.1349C22.3756 23.6828 22.1269 24.2307 21.8781 24.7787C21.7537 25.0831 21.6294 25.3266 21.5672 25.6919C21.505 25.8746 21.505 25.9963 21.505 26.179C21.505 26.3616 21.6294 26.5443 21.7537 26.666C22.0647 26.9096 22.4378 26.9096 22.7487 26.9096C23.0596 26.9096 23.3706 26.8487 23.6815 26.7878C24.3034 26.666 24.863 26.4834 25.4849 26.3007C24.863 26.4225 24.3034 26.5443 23.6815 26.6051C23.3706 26.666 23.0596 26.666 22.7487 26.666C22.4378 26.666 22.1269 26.6051 22.0025 26.4225C21.8159 26.3007 21.8159 25.9963 21.9403 25.7528C22.0025 25.5093 22.1269 25.2049 22.2512 24.9613C22.5 24.4134 22.8109 23.8655 23.0596 23.3175C23.184 23.0131 23.3084 22.7087 23.3706 22.4043L23.4328 22.1608C23.4328 22.0999 23.4328 21.9781 23.4328 21.8564C23.4328 21.6737 23.3084 21.4911 23.2462 21.3084C22.8731 20.6996 22.3134 20.3952 21.7537 20.0299C20.6966 19.4211 19.515 18.934 18.3957 18.3861C18.1469 18.2643 17.836 18.1426 17.5873 17.9599C17.4629 17.899 17.3385 17.8381 17.2141 17.7164C17.0898 17.6555 17.0276 17.5337 17.0276 17.5337V17.5946C17.0276 17.5946 17.0898 17.5337 17.152 17.5337C17.2763 17.4728 17.4007 17.412 17.5251 17.412C17.7738 17.3511 18.0848 17.2902 18.3957 17.2293C19.5772 17.0467 20.8209 16.9858 22.0647 16.6814C23.3084 16.4379 24.4899 16.1334 25.6715 15.7073C26.7908 15.4029 27.9724 14.9158 28.9052 14.1243Z" fill="#2D2F44"/>
</svg>
