<svg width="24" height="24" viewBox="0 0 24 24" fill="none" xmlns="http://www.w3.org/2000/svg">
<path d="M18.1 5.1C18.5 4.7 19.1 4.1 19.1 4.1L15.1 4L15 8.1C15 8.1 15.7 7.4 16.3 6.8C17.5 8 18.1 9.6 18.1 11.2C18.1 14.7 15.3 17.5 11.8 17.5C8.3 17.5 5.5 14.7 5.5 11.2C5.5 9.8 5.9 8.5 6.8 7.4C6.9 7.2 7.1 7 7.3 6.8C8.2 7.6 8.6 8.1 8.6 8.1L8.5 4L4.4 4.1C4.4 4.1 5.1 4.7 5.5 5.1C5.2 5.4 5 5.7 4.8 6C3.6 7.5 3 9.3 3 11.2C3 16.1 7 20 11.8 20C16.6 20 20.6 16 20.6 11.2C20.6 8.9 19.7 6.7 18.1 5.1Z" fill="#2d2f44"/>
<path d="M14.31 8.745L12.24 12.732V15H11.214V12.732L9.135 8.745H10.278L11.727 11.814L13.176 8.745H14.31Z" fill="#2d2f44"/>
</svg>
